<?xml version="1.0" encoding="UTF-8" standalone="no"?>
<!-- Created with Inkscape (http://www.inkscape.org/) -->

<svg
   xmlns:dc="http://purl.org/dc/elements/1.1/"
   xmlns:cc="http://creativecommons.org/ns#"
   xmlns:rdf="http://www.w3.org/1999/02/22-rdf-syntax-ns#"
   xmlns:svg="http://www.w3.org/2000/svg"
   xmlns="http://www.w3.org/2000/svg"
   xmlns:sodipodi="http://sodipodi.sourceforge.net/DTD/sodipodi-0.dtd"
   xmlns:inkscape="http://www.inkscape.org/namespaces/inkscape"
   width="128"
   height="128"
   id="svg2"
   version="1.1"
   inkscape:version="0.48.4 r9939"
   sodipodi:docname="activityDiagram.svg"
   inkscape:export-filename="C:\Users\sd226317\git\idm2014\contrib\papyrus-plugins\org.eclipse.papyrus.farming\icons\svg\activityDiagram.png"
   inkscape:export-xdpi="13.380705"
   inkscape:export-ydpi="13.380705">
  <defs
     id="defs4" />
  <sodipodi:namedview
     id="base"
     pagecolor="#ffffff"
     bordercolor="#666666"
     borderopacity="1.0"
     inkscape:pageopacity="0.0"
     inkscape:pageshadow="2"
     inkscape:zoom="3.959798"
     inkscape:cx="-12.195501"
     inkscape:cy="94.075325"
     inkscape:document-units="px"
     inkscape:current-layer="layer1"
     showgrid="true"
     inkscape:window-width="2048"
     inkscape:window-height="1090"
     inkscape:window-x="-8"
     inkscape:window-y="-8"
     inkscape:window-maximized="1">
    <inkscape:grid
       type="xygrid"
       id="grid2998"
       empspacing="5"
       visible="true"
       enabled="true"
       snapvisiblegridlinesonly="true" />
  </sodipodi:namedview>
  <metadata
     id="metadata7">
    <rdf:RDF>
      <cc:Work
         rdf:about="">
        <dc:format>image/svg+xml</dc:format>
        <dc:type
           rdf:resource="http://purl.org/dc/dcmitype/StillImage" />
        <dc:title></dc:title>
      </cc:Work>
    </rdf:RDF>
  </metadata>
  <g
     inkscape:label="Calque 1"
     inkscape:groupmode="layer"
     id="layer1"
     transform="translate(0,-924.36218)">
    <path
       style="fill:none;stroke:#333333;stroke-width:2.37917829;stroke-miterlimit:4;stroke-dasharray:none"
       d="m 26.821883,978.84289 c 5.289904,3.09426 9.521828,3.09426 20.101639,-7.2197 -5.289905,-3.09425 -9.521829,-7.21987 -12.695772,-12.37685 -10.579811,10.31396 -10.579811,14.43958 -7.405867,19.59655 z"
       id="path5282"
       inkscape:connector-curvature="0"
       sodipodi:nodetypes="cccc" />
    <path
       style="fill:#0099ba;stroke:#0099ba;stroke-width:2.37917829;stroke-miterlimit:4;stroke-opacity:1;stroke-dasharray:none"
       d="m 58.00903,941.72323 c -3.173946,3.09419 -2.115961,4.12559 -2.115961,6.18837 -19.043662,18.56519 -20.101643,19.59655 -21.159624,22.69081 3.173943,-1.03137 4.231924,-2.06281 23.275585,-20.628 2.115962,0 3.173939,1.03136 6.347885,-2.06281 z m 1.057977,3.09419 2.115962,2.06282 c -1.057977,1.03136 -1.692765,1.65025 -2.750749,0.6188 -1.057977,-1.03138 -0.42319,-1.65022 0.634787,-2.68162 z"
       id="path5284"
       inkscape:connector-curvature="0"
       sodipodi:nodetypes="ccccccccsc" />
    <rect
       style="fill:none;stroke:#0099ba;stroke-width:4.94715929000000010;stroke-linecap:round;stroke-linejoin:round;stroke-miterlimit:4;stroke-dasharray:none;stroke-opacity:1"
       id="rect3049"
       width="61.026382"
       height="50.444344"
       x="13.036963"
       y="936.26239"
       ry="6.8233886" />
    <path
       style="fill:none;stroke:#333333;stroke-width:2.37917829;stroke-miterlimit:4;stroke-dasharray:none"
       d="m 72.729231,1040.3086 c 5.28991,3.0942 9.52183,3.0942 20.10164,-7.2197 -5.2899,-3.0943 -9.52183,-7.2199 -12.69577,-12.3768 -10.57981,10.3139 -10.57981,14.4395 -7.40587,19.5965 z"
       id="path5282-9"
       inkscape:connector-curvature="0"
       sodipodi:nodetypes="cccc" />
    <path
       style="fill:#0099ba;stroke:#0099ba;stroke-width:2.37917829;stroke-miterlimit:4;stroke-opacity:1;stroke-dasharray:none"
       d="m 103.91638,1003.1889 c -3.17395,3.0942 -2.11596,4.1256 -2.11596,6.1884 -19.043659,18.5652 -20.101639,19.5965 -21.159619,22.6908 3.17394,-1.0314 4.23192,-2.0628 23.275579,-20.628 2.11596,0 3.17394,1.0314 6.34789,-2.0628 z m 1.05798,3.0942 2.11596,2.0629 c -1.05798,1.0313 -1.69277,1.6502 -2.75075,0.6188 -1.05798,-1.0314 -0.42319,-1.6503 0.63479,-2.6817 z"
       id="path5284-4"
       inkscape:connector-curvature="0"
       sodipodi:nodetypes="ccccccccsc" />
    <rect
       style="fill:none;stroke:#0099ba;stroke-width:4.94715929;stroke-linecap:round;stroke-linejoin:round;stroke-miterlimit:4;stroke-opacity:1;stroke-dasharray:none"
       id="rect3049-8"
       width="61.026382"
       height="50.444344"
       x="58.993797"
       y="996.9718"
       ry="6.8233886" />
    <path
       style="fill:none;stroke:#000000;stroke-width:4;stroke-linecap:butt;stroke-linejoin:miter;stroke-miterlimit:4;stroke-opacity:1;stroke-dasharray:none"
       d="m 27.979695,989.36399 0,33.01661"
       id="path5343"
       inkscape:connector-type="polyline"
       inkscape:connector-curvature="0" />
    <path
       style="fill:none;stroke:#000000;stroke-width:3;stroke-linecap:butt;stroke-linejoin:miter;stroke-miterlimit:4;stroke-opacity:1;stroke-dasharray:none"
       d="m 30,63 0,0"
       id="path5345"
       inkscape:connector-type="polyline"
       inkscape:connector-curvature="0"
       transform="translate(0,924.36218)" />
    <path
       style="fill:none;stroke:#000000;stroke-width:4.02052975;stroke-linecap:butt;stroke-linejoin:miter;stroke-miterlimit:4;stroke-opacity:1;stroke-dasharray:none"
       d="m 56.863557,1020.2156 -26.959347,0"
       id="path5349"
       inkscape:connector-type="polyline"
       inkscape:connector-curvature="0" />
  </g>
</svg>
