<?xml version="1.0" encoding="UTF-8" standalone="no"?>
<!-- Created with Inkscape (http://www.inkscape.org/) -->

<svg
   xmlns:dc="http://purl.org/dc/elements/1.1/"
   xmlns:cc="http://creativecommons.org/ns#"
   xmlns:rdf="http://www.w3.org/1999/02/22-rdf-syntax-ns#"
   xmlns:svg="http://www.w3.org/2000/svg"
   xmlns="http://www.w3.org/2000/svg"
   xmlns:sodipodi="http://sodipodi.sourceforge.net/DTD/sodipodi-0.dtd"
   xmlns:inkscape="http://www.inkscape.org/namespaces/inkscape"
   width="128"
   height="128"
   id="svg2"
   version="1.1"
   inkscape:version="0.48.4 r9939"
   sodipodi:docname="farmer.svg"
   inkscape:export-filename="C:\Users\sd226317\git\idm2014\contrib\papyrus-plugins\org.eclipse.papyrus.farming\icons\svg\farmer.png"
   inkscape:export-xdpi="11.592325"
   inkscape:export-ydpi="11.592325">
  <defs
     id="defs4" />
  <sodipodi:namedview
     id="base"
     pagecolor="#ffffff"
     bordercolor="#666666"
     borderopacity="1.0"
     inkscape:pageopacity="0.0"
     inkscape:pageshadow="2"
     inkscape:zoom="5.6"
     inkscape:cx="46.875021"
     inkscape:cy="56.32284"
     inkscape:document-units="px"
     inkscape:current-layer="layer1"
     showgrid="false"
     inkscape:window-width="2048"
     inkscape:window-height="1090"
     inkscape:window-x="-32000"
     inkscape:window-y="-32000"
     inkscape:window-maximized="0">
    <inkscape:grid
       type="xygrid"
       id="grid2998"
       empspacing="5"
       visible="true"
       enabled="true"
       snapvisiblegridlinesonly="true" />
  </sodipodi:namedview>
  <metadata
     id="metadata7">
    <rdf:RDF>
      <cc:Work
         rdf:about="">
        <dc:format>image/svg+xml</dc:format>
        <dc:type
           rdf:resource="http://purl.org/dc/dcmitype/StillImage" />
        <dc:title></dc:title>
      </cc:Work>
    </rdf:RDF>
  </metadata>
  <g
     inkscape:label="Calque 1"
     inkscape:groupmode="layer"
     id="layer1"
     transform="translate(0,-924.36218)">
    <path
       style="fill:none;stroke:#0099ba;stroke-width:10;stroke-linecap:butt;stroke-linejoin:miter;stroke-miterlimit:4;stroke-opacity:1;stroke-dasharray:none"
       d="m 34.821429,984.41575 0.53125,14.37501 c -1.019757,-3.40849 -11.07479,-9.72392 -12.6875,4.28124 -0.968323,8.4092 12.804814,17.3332 13.21875,16.7813 5.038019,14.2781 12.548102,25.1875 28.46875,25.1875 15.920655,0 23.43073,-10.9094 28.46875,-25.1875 0.41394,0.5519 14.187071,-8.3722 13.218751,-16.7813 -1.61271,-14.00516 -11.667751,-7.68973 -12.687501,-4.28124 l 0.53125,-14.37501 -29.53125,0 z"
       id="path3770"
       inkscape:connector-curvature="0"
       sodipodi:nodetypes="ccscscscccc" />
    <path
       style="fill:#ffffff;stroke:#98bf0c;stroke-width:9.64079094;stroke-miterlimit:4;stroke-dasharray:none"
       d="m 43.182617,930.64238 c -9.991465,0.69187 -4.081749,24.88337 -18.207453,38.26533 -3.826952,3.62546 -19.1692362,6.87847 -17.6828305,10.29429 15.7277555,9.76742 104.3206865,12.96341 112.7010465,0 1.4864,-3.41582 -13.85588,-6.66884 -17.68283,-10.29429 -14.125705,-13.38196 -8.215988,-37.57346 -18.207454,-38.26533 -0.987989,-0.0684 -15.527192,10.88373 -20.460239,10.70605 -4.933048,0.17769 -19.472251,-10.77447 -20.46024,-10.70605 z"
       id="path2997"
       inkscape:connector-curvature="0"
       sodipodi:nodetypes="ssccsccs" />
    <path
       sodipodi:type="arc"
       style="fill:#0099ba;fill-opacity:1;stroke:none"
       id="path3777"
       sodipodi:cx="61.07143"
       sodipodi:cy="92.01786"
       sodipodi:rx="12.142858"
       sodipodi:ry="11.339286"
       d="m 73.214288,92.01786 a 12.142858,11.339286 0 1 1 -24.285715,0 12.142858,11.339286 0 1 1 24.285715,0 z"
       transform="matrix(0.47058822,0,0,0.51968504,21.944532,956.17928)" />
    <path
       transform="matrix(0.4852941,0,0,0.51968504,47.742851,956.35784)"
       d="m 73.214288,92.01786 a 12.142858,11.339286 0 1 1 -24.285715,0 12.142858,11.339286 0 1 1 24.285715,0 z"
       sodipodi:ry="11.339286"
       sodipodi:rx="12.142858"
       sodipodi:cy="92.01786"
       sodipodi:cx="61.07143"
       id="path3779"
       style="fill:#0099ba;fill-opacity:1;stroke:none"
       sodipodi:type="arc" />
  </g>
</svg>
