<?xml version="1.0" encoding="UTF-8" standalone="no"?>
<!-- Created with Inkscape (http://www.inkscape.org/) -->

<svg
   xmlns:dc="http://purl.org/dc/elements/1.1/"
   xmlns:cc="http://creativecommons.org/ns#"
   xmlns:rdf="http://www.w3.org/1999/02/22-rdf-syntax-ns#"
   xmlns:svg="http://www.w3.org/2000/svg"
   xmlns="http://www.w3.org/2000/svg"
   xmlns:sodipodi="http://sodipodi.sourceforge.net/DTD/sodipodi-0.dtd"
   xmlns:inkscape="http://www.inkscape.org/namespaces/inkscape"
   width="128"
   height="128"
   id="svg2"
   version="1.1"
   inkscape:version="0.48.4 r9939"
   sodipodi:docname="FodderSurface.svg"
   inkscape:export-filename="C:\Users\sd226317\git\idm2014\contrib\papyrus-plugins\org.eclipse.papyrus.farming\icons\svg\FodderSurface.png"
   inkscape:export-xdpi="12.01"
   inkscape:export-ydpi="12.01">
  <defs
     id="defs4" />
  <sodipodi:namedview
     id="base"
     pagecolor="#ffffff"
     bordercolor="#666666"
     borderopacity="1.0"
     inkscape:pageopacity="0.0"
     inkscape:pageshadow="2"
     inkscape:zoom="1.4"
     inkscape:cx="-256.85714"
     inkscape:cy="-16.827684"
     inkscape:document-units="px"
     inkscape:current-layer="layer1"
     showgrid="false"
     inkscape:window-width="2048"
     inkscape:window-height="1090"
     inkscape:window-x="-8"
     inkscape:window-y="-8"
     inkscape:window-maximized="1">
    <inkscape:grid
       type="xygrid"
       id="grid2998"
       empspacing="5"
       visible="true"
       enabled="true"
       snapvisiblegridlinesonly="true" />
  </sodipodi:namedview>
  <metadata
     id="metadata7">
    <rdf:RDF>
      <cc:Work
         rdf:about="">
        <dc:format>image/svg+xml</dc:format>
        <dc:type
           rdf:resource="http://purl.org/dc/dcmitype/StillImage" />
        <dc:title></dc:title>
      </cc:Work>
    </rdf:RDF>
  </metadata>
  <g
     inkscape:label="Calque 1"
     inkscape:groupmode="layer"
     id="layer1"
     transform="translate(0,-924.36218)">
    <g
       id="g2986"
       transform="matrix(0.55269831,0,0,0.54811897,18.825202,436.46717)">
      <path
         sodipodi:nodetypes="cccsscssssssscsscccszsccsssssccssssssssc"
         inkscape:connector-curvature="0"
         id="path3006"
         d="m 25.09417,924.78404 c 0.09802,10.17583 1.769406,19.1487 15.40625,24.75 -1.46647,0.21705 -3.660379,0.75933 -7.4375,4.9375 0,0 -27.6477638,-9.39654 -31.1874997,0.875 -2.14208827,6.21587 7.3556762,11.22087 13.7499997,12.75 4.031675,0.96413 12.125,-2.78125 12.125,-2.78125 -3.872702,10.06414 -2.183664,28.32395 2.90625,36.87501 2.848319,4.7852 9.394931,10.4407 10.71875,18.5625 1.042751,6.3974 -5.787127,17.0395 -0.25,23.0937 5.453438,5.9627 14.786775,8.0955 22.875,8.0938 8.078405,0 17.390312,-2.1311 22.84375,-8.0938 5.537127,-6.0542 -1.292751,-16.6963 -0.25,-23.0937 1.323819,-8.1217 7.901681,-13.7774 10.75,-18.5625 5.08992,-8.55108 6.7477,-26.81087 2.875,-36.87501 0,0 8.09333,3.74538 12.125,2.78125 6.39433,-1.52913 15.92334,-6.53413 13.78125,-12.75 -3.53974,-10.27155 -31.1875,-0.875 -31.1875,-0.875 -3.777121,-4.17817 -6.00228,-4.72045 -7.46875,-4.9375 13.63685,-5.6013 15.30825,-14.57417 15.40625,-24.75 0,0 -2.81293,15.53869 -27.125,14.03125 -2.592042,-0.16072 -2.877991,-9.49365 -11.75,-9.49365 -8.872009,-10e-6 -9.157958,9.33293 -11.75,9.49365 -24.31207,1.50745 -27.15625,-14.03125 -27.15625,-14.03125 z m 38.90625,34.46875 c 0,0 15.821789,0.26878 20.5625,5.5625 4.773444,5.33027 6.127088,14.65378 3.28125,21.21875 -1.662263,3.83462 -9.46378,5.37285 -11.59375,8.96875 -4.828004,8.15091 -3.176184,16.86941 -1.15625,26.12501 1.23097,5.6405 11.360338,13.6418 7.46875,20.4687 -0.990912,1.7383 -0.274572,-5.1151 -4.8125,-1.5312 -2.937411,2.3198 2.863687,3.5817 0.75,4.8125 -5.799793,3.3771 -14.604458,2.2815 -14.5,2.2812 0.104589,-2e-4 -8.731457,1.0959 -14.53125,-2.2812 -2.113687,-1.2308 3.687411,-2.4927 0.75,-4.8125 -4.537928,-3.5839 -3.790338,3.2696 -4.78125,1.5312 -3.891588,-6.8268 6.20653,-14.8283 7.4375,-20.4687 2.019934,-9.2556 3.703004,-17.9741 -1.125,-26.12501 -2.12997,-3.59592 -9.962737,-5.13413 -11.625,-8.96875 -2.845838,-6.56496 -1.492194,-15.88848 3.28125,-21.21875 4.740711,-5.29372 20.59375,-5.5625 20.59375,-5.5625 z"
         style="fill:#0099ba;stroke:none" />
      <path
         id="path3019"
         d="m 25.09375,924.76843 c 0.09802,10.17583 1.769406,19.1487 15.40625,24.75 14.619524,-0.60768 13.428497,-5.88666 13.75,-10.71875 -24.31207,1.50745 -29.15625,-14.03125 -29.15625,-14.03125 z"
         style="fill:#333333;stroke:none"
         inkscape:connector-curvature="0" />
      <path
         inkscape:connector-curvature="0"
         style="fill:#333333;stroke:none"
         d="m 102.875,924.76843 c -0.098,10.17583 -1.76941,19.1487 -15.40625,24.75 -14.619524,-0.60768 -13.428497,-5.88666 -13.75,-10.71875 24.31207,1.50745 29.15625,-14.03125 29.15625,-14.03125 z"
         id="path3021" />
    </g>
    <rect
       style="fill:none;stroke:#98bf0c;stroke-width:9.41114998;stroke-linecap:round;stroke-linejoin:round;stroke-miterlimit:4;stroke-dasharray:none"
       id="rect3049"
       width="87.279152"
       height="87.993439"
       x="10.915461"
       y="935.27765"
       ry="11.902493" />
    <g
       id="g5011"
       style="fill:#0099ba;stroke:#0099ba;stroke-width:4;stroke-miterlimit:4;stroke-opacity:1;stroke-dasharray:none"
       transform="translate(0,-1.7905584)">
      <path
         style="font-size:medium;font-style:normal;font-variant:normal;font-weight:normal;font-stretch:normal;text-indent:0;text-align:start;text-decoration:none;line-height:normal;letter-spacing:normal;word-spacing:normal;text-transform:none;direction:ltr;block-progression:tb;writing-mode:lr-tb;text-anchor:start;baseline-shift:baseline;color:#000000;fill:#0099ba;fill-opacity:1;fill-rule:nonzero;stroke:#0099ba;stroke-width:4;stroke-miterlimit:4;stroke-opacity:1;stroke-dasharray:none;marker:none;visibility:visible;display:inline;overflow:visible;enable-background:accumulate;font-family:Sans;-inkscape-font-specification:Sans"
         d="m 10.8125,1038.4688 0,2.1562 90.9375,0 0,-2.1562 -90.9375,0 z"
         id="path3051"
         inkscape:connector-curvature="0" />
      <path
         d="m 23.868581,1047.1145 -15.9180155,-7.5307 15.9180175,-7.5307 z"
         style="fill:#0099ba;fill-rule:evenodd;stroke:#0099ba;stroke-width:4;stroke-linejoin:round;stroke-miterlimit:4;stroke-opacity:1;stroke-dasharray:none"
         id="path5017"
         inkscape:connector-curvature="0"
         sodipodi:nodetypes="cccc" />
      <path
         d="m 88.708968,1031.9771 15.918012,7.5307 -15.918014,7.5307 z"
         style="fill:#0099ba;fill-rule:evenodd;stroke:#0099ba;stroke-width:4;stroke-linejoin:round;stroke-miterlimit:4;stroke-opacity:1;stroke-dasharray:none"
         id="path5019"
         inkscape:connector-curvature="0"
         sodipodi:nodetypes="cccc" />
    </g>
    <g
       style="fill:#0099ba;stroke:#0099ba;stroke-width:4;stroke-miterlimit:4;stroke-opacity:1;stroke-dasharray:none"
       id="g5023"
       transform="matrix(0,0.95647586,-1.0051499,0,1161.1496,927.57582)">
      <path
         inkscape:connector-curvature="0"
         id="path5025"
         d="m 10.8125,1038.4688 0,2.1562 90.9375,0 0,-2.1562 -90.9375,0 z"
         style="font-size:medium;font-style:normal;font-variant:normal;font-weight:normal;font-stretch:normal;text-indent:0;text-align:start;text-decoration:none;line-height:normal;letter-spacing:normal;word-spacing:normal;text-transform:none;direction:ltr;block-progression:tb;writing-mode:lr-tb;text-anchor:start;baseline-shift:baseline;color:#000000;fill:#0099ba;fill-opacity:1;fill-rule:nonzero;stroke:#0099ba;stroke-width:4;stroke-miterlimit:4;stroke-opacity:1;stroke-dasharray:none;marker:none;visibility:visible;display:inline;overflow:visible;enable-background:accumulate;font-family:Sans;-inkscape-font-specification:Sans" />
      <path
         sodipodi:nodetypes="cccc"
         inkscape:connector-curvature="0"
         id="path5027"
         style="fill:#0099ba;fill-rule:evenodd;stroke:#0099ba;stroke-width:4;stroke-linejoin:round;stroke-miterlimit:4;stroke-opacity:1;stroke-dasharray:none"
         d="m 23.868581,1047.1145 -15.9180155,-7.5307 15.9180175,-7.5307 z" />
      <path
         sodipodi:nodetypes="cccc"
         inkscape:connector-curvature="0"
         id="path5029"
         style="fill:#0099ba;fill-rule:evenodd;stroke:#0099ba;stroke-width:4;stroke-linejoin:round;stroke-miterlimit:4;stroke-opacity:1;stroke-dasharray:none"
         d="m 88.708968,1031.9771 15.918012,7.5307 -15.918014,7.5307 z" />
    </g>
  </g>
</svg>
