<?xml version="1.0" encoding="UTF-8" standalone="no"?>
<!-- Created with Inkscape (http://www.inkscape.org/) -->

<svg
   xmlns:dc="http://purl.org/dc/elements/1.1/"
   xmlns:cc="http://creativecommons.org/ns#"
   xmlns:rdf="http://www.w3.org/1999/02/22-rdf-syntax-ns#"
   xmlns:svg="http://www.w3.org/2000/svg"
   xmlns="http://www.w3.org/2000/svg"
   xmlns:sodipodi="http://sodipodi.sourceforge.net/DTD/sodipodi-0.dtd"
   xmlns:inkscape="http://www.inkscape.org/namespaces/inkscape"
   width="210mm"
   height="297mm"
   id="svg2"
   version="1.1"
   inkscape:version="0.48.4 r9939"
   sodipodi:docname="human.svg">
  <defs
     id="defs4" />
  <sodipodi:namedview
     id="base"
     pagecolor="#ffffff"
     bordercolor="#666666"
     borderopacity="1.0"
     inkscape:pageopacity="0.0"
     inkscape:pageshadow="2"
     inkscape:zoom="0.35"
     inkscape:cx="-20.714286"
     inkscape:cy="520"
     inkscape:document-units="px"
     inkscape:current-layer="layer1"
     showgrid="false"
     inkscape:window-width="2048"
     inkscape:window-height="1090"
     inkscape:window-x="-8"
     inkscape:window-y="-8"
     inkscape:window-maximized="1" />
  <metadata
     id="metadata7">
    <rdf:RDF>
      <cc:Work
         rdf:about="">
        <dc:format>image/svg+xml</dc:format>
        <dc:type
           rdf:resource="http://purl.org/dc/dcmitype/StillImage" />
        <dc:title />
      </cc:Work>
    </rdf:RDF>
  </metadata>
  <g
     inkscape:label="Calque 1"
     inkscape:groupmode="layer"
     id="layer1">
    <g
       id="g2996"
       transform="matrix(5.7991071,0,0,5.7991071,-1574.273,-2569.4549)">
      <path
         style="fill:#f6f6f6"
         d="m 270.28571,509.50504 0,-64 64,0 64,0 0,64 0,64 -64,0 -64,0 0,-64 z m 75.79707,52.94354 c 7.17127,-3.58352 14.2538,-10.39293 17.09365,-16.43445 1.19258,-2.53709 3.4727,-5.18861 5.58388,-6.49339 4.17217,-2.57855 7.9984,-7.39608 8.89726,-11.20239 0.34896,-1.47768 0.0285,-5.30268 -0.71212,-8.5 -0.74062,-3.19732 -1.15999,-6.35947 -0.93193,-7.027 0.22806,-0.66753 3.13831,-1.74954 6.46723,-2.40447 6.63466,-1.30528 11.5087,-4.60553 10.53794,-7.1353 -0.33107,-0.86274 -3.78835,-3.24303 -7.68285,-5.28954 -13.2643,-6.97019 -17.62201,-13.14547 -20.62016,-29.22065 -2.02899,-10.87883 -3.5537,-14.61609 -6.84203,-16.77069 -3.558,-2.33129 -7.75507,-1.34837 -15.08794,3.53348 -3.3,2.19697 -7.125,3.99449 -8.5,3.99449 -1.375,0 -5.2,-1.79752 -8.5,-3.99449 -7.24655,-4.82438 -11.53779,-5.85962 -14.96923,-3.61126 -3.49243,2.28833 -4.18754,3.98428 -6.91935,16.88199 -1.33765,6.31546 -3.11134,12.77583 -3.94155,14.35639 -2.3469,4.46808 -9.50369,10.70809 -16.98374,14.80815 -3.74763,2.0542 -7.08549,4.44273 -7.41746,5.30783 -0.97254,2.53439 3.89557,5.83312 10.53629,7.1396 3.32892,0.65493 6.2371,1.73694 6.46262,2.40447 0.22553,0.66753 -0.23025,4.03098 -1.01282,7.47433 -1.35658,5.96896 -1.31935,6.47449 0.79919,10.85081 1.38611,2.86331 3.96799,5.8445 6.8629,7.92428 2.78507,2.00088 5.32882,4.89349 6.36136,7.23379 2.4667,5.5909 9.83252,12.63001 16.92472,16.17402 8.417,4.20603 15.17714,4.20603 23.59414,0 z m -20.40326,-4.83386 c -7.61235,-3.60127 -12.94835,-8.85355 -15.99615,-15.74518 -1.80123,-4.07289 -3.14246,-5.64886 -5.72626,-6.72844 -3.78596,-1.58188 -7.6714,-6.39011 -7.6714,-9.49338 0,-1.12671 0.52873,-3.20901 1.17495,-4.62732 1.04384,-2.29096 1.67814,-2.5473 5.68381,-2.29705 4.00858,0.25044 4.57252,0.022 5.08258,-2.05922 l 0.57372,-2.34091 25.48494,0 25.48494,0 0.57632,2.34091 c 0.50255,2.04124 1.10334,2.30751 4.69319,2.08 3.30164,-0.20924 4.42663,0.18136 5.68121,1.97251 3.41585,4.87681 0.5424,11.64614 -6.12631,14.4325 -2.56233,1.07062 -3.9105,2.65817 -5.70701,6.7204 -1.29368,2.92526 -4.04816,7.01465 -6.12105,9.08755 -4.16481,4.16481 -14.58324,9.54637 -18.48129,9.54637 -1.375,0 -5.24779,-1.29993 -8.60619,-2.88874 z m -2.3736,-30.14745 c 2.37643,-4.44039 -2.47956,-9.39231 -6.89372,-7.02993 -2.37645,1.27184 -2.91859,5.8756 -0.92649,7.8677 1.95095,1.95095 6.59393,1.45355 7.82021,-0.83777 z m 29.77979,0.83777 c 1.95095,-1.95095 1.45355,-6.59393 -0.83777,-7.82022 -4.41272,-2.36161 -9.16158,2.09251 -7.08655,6.64671 1.19652,2.62608 5.79131,3.30652 7.92432,1.17351 z m -37.3,-19.79367 c -18.51289,-1.20578 -32.57381,-3.63409 -30.47104,-5.26232 0.25907,-0.20061 2.84054,-1.85148 5.73661,-3.66861 10.91795,-6.85045 15.62838,-14.80731 18.7828,-31.72791 2.47964,-13.30109 3.12735,-13.60798 14.45163,-6.84749 4.125,2.46259 8.64552,4.48251 10.04561,4.48872 1.40008,0.006 5.90008,-2.00622 10,-4.47205 11.44215,-6.88171 12.09578,-6.51869 14.91651,8.28453 1.05183,5.52001 2.88672,12.30123 4.07755,15.06938 2.40872,5.59921 10.66894,14.06909 16.37409,16.78969 6.40743,3.05549 5.01123,3.7733 -11.2465,5.78197 -15.20473,1.87858 -37.61886,2.54423 -52.66726,1.56409 z"
         id="path3000"
         inkscape:connector-curvature="0" />
      <path
         style="fill:#2c2c2c"
         d="m 322.48864,562.44858 c -7.0922,-3.54401 -14.45802,-10.58312 -16.92472,-16.17402 -1.03254,-2.3403 -3.57629,-5.23291 -6.36136,-7.23379 -2.89491,-2.07978 -5.47679,-5.06097 -6.8629,-7.92428 -2.11854,-4.37632 -2.15577,-4.88185 -0.79919,-10.85081 0.78257,-3.44335 1.23835,-6.8068 1.01282,-7.47433 -0.22552,-0.66753 -3.1337,-1.74954 -6.46262,-2.40447 -6.64072,-1.30648 -11.50883,-4.60521 -10.53629,-7.1396 0.33197,-0.8651 3.66983,-3.25363 7.41746,-5.30783 7.48005,-4.10006 14.63684,-10.34007 16.98374,-14.80815 0.83021,-1.58056 2.6039,-8.04093 3.94155,-14.35639 2.73181,-12.89771 3.42692,-14.59366 6.91935,-16.88199 3.43144,-2.24836 7.72268,-1.21312 14.96923,3.61126 3.3,2.19697 7.125,3.99449 8.5,3.99449 1.375,0 5.2,-1.79752 8.5,-3.99449 7.33287,-4.88185 11.52994,-5.86477 15.08794,-3.53348 3.28833,2.1546 4.81304,5.89186 6.84203,16.77069 2.99815,16.07518 7.35586,22.25046 20.62016,29.22065 3.8945,2.04651 7.35178,4.4268 7.68285,5.28954 0.97076,2.52977 -3.90328,5.83002 -10.53794,7.1353 -3.32892,0.65493 -6.23917,1.73694 -6.46723,2.40447 -0.22806,0.66753 0.19131,3.82968 0.93193,7.027 0.74062,3.19732 1.06108,7.02232 0.71212,8.5 -0.89886,3.80631 -4.72509,8.62384 -8.89727,11.20239 -2.11117,1.30478 -4.39129,3.9563 -5.58387,6.49339 -2.83985,6.04152 -9.92238,12.85093 -17.09365,16.43445 -8.417,4.20603 -15.17714,4.20603 -23.59414,0 z m 20.40326,-4.83386 c 7.61235,-3.60127 12.94835,-8.85355 15.99615,-15.74518 1.79651,-4.06223 3.14468,-5.64978 5.70701,-6.7204 6.66871,-2.78636 9.54216,-9.55569 6.12631,-14.4325 -1.25458,-1.79115 -2.37956,-2.18175 -5.68121,-1.97251 -3.58985,0.22751 -4.19064,-0.0388 -4.69319,-2.08 l -0.57632,-2.34091 -25.48494,0 -25.48494,0 -0.57372,2.34091 c -0.51006,2.08117 -1.074,2.30966 -5.08258,2.05922 -4.00567,-0.25025 -4.63997,0.006 -5.68381,2.29705 -0.64622,1.41831 -1.17495,3.50061 -1.17495,4.62732 0,3.10327 3.88544,7.9115 7.6714,9.49338 2.5838,1.07958 3.92503,2.65555 5.72626,6.72844 1.29368,2.92526 4.04816,7.01465 6.12105,9.08755 4.16481,4.16481 14.58324,9.54637 18.48129,9.54637 1.375,0 5.24779,-1.29993 8.60619,-2.88874 z m -27.40619,-29.30968 c -1.9921,-1.9921 -1.44996,-6.59586 0.92649,-7.8677 4.41416,-2.36238 9.27015,2.58954 6.89372,7.02993 -1.22628,2.29132 -5.86926,2.78872 -7.82021,0.83777 z m 29.67568,-1.17351 c -2.07503,-4.5542 2.67383,-9.00832 7.08655,-6.64671 2.29132,1.22629 2.78872,5.86927 0.83777,7.82022 -2.13301,2.13301 -6.7278,1.45257 -7.92432,-1.17351 z m 23.29158,-20.18425 c 16.25773,-2.00867 17.65393,-2.72648 11.2465,-5.78197 -5.70515,-2.7206 -13.96537,-11.19048 -16.37409,-16.78969 -1.19083,-2.76815 -3.02572,-9.54937 -4.07755,-15.06938 -2.82073,-14.80322 -3.47436,-15.16624 -14.91651,-8.28453 -4.09992,2.46583 -8.59992,4.47825 -10,4.47205 -1.40009,-0.006 -5.92061,-2.02613 -10.04561,-4.48872 -11.32428,-6.76049 -11.97199,-6.4536 -14.45163,6.84749 -3.15442,16.9206 -7.86485,24.87746 -18.7828,31.72791 -2.89607,1.81713 -5.47754,3.468 -5.73661,3.66861 -1.14452,0.88623 2.90317,2.1638 10.382,3.27686 20.47958,3.04794 50.10865,3.21954 72.7563,0.42137 z"
         id="path2998"
         inkscape:connector-curvature="0" />
    </g>
  </g>
</svg>
