<?xml version="1.0" encoding="UTF-8" standalone="no"?>
<!-- Created with Inkscape (http://www.inkscape.org/) -->

<svg
   xmlns:dc="http://purl.org/dc/elements/1.1/"
   xmlns:cc="http://creativecommons.org/ns#"
   xmlns:rdf="http://www.w3.org/1999/02/22-rdf-syntax-ns#"
   xmlns:svg="http://www.w3.org/2000/svg"
   xmlns="http://www.w3.org/2000/svg"
   xmlns:sodipodi="http://sodipodi.sourceforge.net/DTD/sodipodi-0.dtd"
   xmlns:inkscape="http://www.inkscape.org/namespaces/inkscape"
   width="128"
   height="128"
   id="svg2"
   version="1.1"
   inkscape:version="0.48.5 r10040"
   sodipodi:docname="material.svg">
  <defs
     id="defs4" />
  <sodipodi:namedview
     id="base"
     pagecolor="#ffffff"
     bordercolor="#666666"
     borderopacity="1.0"
     inkscape:pageopacity="0.0"
     inkscape:pageshadow="2"
     inkscape:zoom="0.98994949"
     inkscape:cx="212.09372"
     inkscape:cy="-82.053231"
     inkscape:document-units="px"
     inkscape:current-layer="layer1"
     showgrid="false"
     inkscape:window-width="2560"
     inkscape:window-height="1378"
     inkscape:window-x="-8"
     inkscape:window-y="-8"
     inkscape:window-maximized="1"
     width="128px">
    <inkscape:grid
       type="xygrid"
       id="grid2998"
       empspacing="5"
       visible="true"
       enabled="true"
       snapvisiblegridlinesonly="true" />
  </sodipodi:namedview>
  <metadata
     id="metadata7">
    <rdf:RDF>
      <cc:Work
         rdf:about="">
        <dc:format>image/svg+xml</dc:format>
        <dc:type
           rdf:resource="http://purl.org/dc/dcmitype/StillImage" />
        <dc:title />
      </cc:Work>
    </rdf:RDF>
  </metadata>
  <g
     inkscape:label="Calque 1"
     inkscape:groupmode="layer"
     id="layer1"
     transform="translate(0,-924.36212)">
    <rect
       inkscape:tile-y0="13.347659"
       inkscape:tile-x0="46.972092"
       inkscape:transform-center-y="-20.416181"
       ry="3.1834223"
       y="938.22211"
       x="75.021637"
       height="6.3668447"
       width="0"
       id="use3171"
       style="fill:#0099ba;fill-opacity:1;stroke:none"
       transform="matrix(1,0,-0.30901699,0.95105652,0,0)" />
    <rect
       inkscape:tile-y0="13.347659"
       inkscape:tile-x0="46.972092"
       inkscape:transform-center-y="-20.416181"
       ry="3.1834223"
       y="949.56726"
       x="99.703835"
       height="6.3668447"
       width="0"
       id="use3173"
       style="fill:#0099ba;fill-opacity:1;stroke:none"
       transform="matrix(1,0,-0.58778525,0.80901699,0,0)" />
    <rect
       inkscape:tile-y0="13.347659"
       inkscape:tile-x0="46.972092"
       inkscape:transform-center-y="-20.416181"
       ry="3.1834223"
       y="978.15875"
       x="139.64047"
       height="6.3668447"
       width="0"
       id="use3175"
       style="fill:#0099ba;fill-opacity:1;stroke:none"
       transform="matrix(1,0,-0.80901699,0.58778525,0,0)" />
    <rect
       inkscape:tile-y0="13.347659"
       inkscape:tile-x0="46.972092"
       inkscape:transform-center-y="-20.416181"
       ry="3.1834223"
       y="1072.4796"
       x="244.19597"
       height="6.3668447"
       width="0"
       id="use3177"
       style="fill:#0099ba;fill-opacity:1;stroke:none"
       transform="matrix(1,0,-0.95105652,0.30901699,0,0)" />
    <rect
       inkscape:tile-y0="13.347659"
       inkscape:tile-x0="46.972092"
       inkscape:transform-center-y="-20.416181"
       ry="3.1834223"
       y="61.456173"
       x="-818.54999"
       height="6.3668447"
       width="0"
       id="use3179"
       style="fill:#0099ba;fill-opacity:1;stroke:none"
       transform="matrix(1,0,-1,0,0,0)" />
    <rect
       inkscape:tile-y0="13.347659"
       inkscape:tile-x0="46.972092"
       inkscape:transform-center-y="-20.416181"
       ry="3.1834223"
       y="674.72693"
       x="-134.08934"
       height="6.3668447"
       width="0"
       id="use3181"
       style="fill:#0099ba;fill-opacity:1;stroke:none"
       transform="matrix(1,0,-0.95105652,-0.30901699,0,0)" />
    <rect
       inkscape:tile-y0="13.347659"
       inkscape:tile-x0="46.972092"
       inkscape:transform-center-y="-20.416181"
       ry="3.1834223"
       y="769.04779"
       x="-29.533855"
       height="6.3668447"
       width="0"
       id="use3183"
       style="fill:#0099ba;fill-opacity:1;stroke:none"
       transform="matrix(1,0,-0.80901699,-0.58778525,0,0)" />
    <rect
       inkscape:tile-y0="13.347659"
       inkscape:tile-x0="46.972092"
       inkscape:transform-center-y="-20.416181"
       ry="3.1834223"
       y="797.63928"
       x="10.40279"
       height="6.3668447"
       width="0"
       id="use3185"
       style="fill:#0099ba;fill-opacity:1;stroke:none"
       transform="matrix(1,0,-0.58778525,-0.80901699,0,0)" />
    <rect
       inkscape:tile-y0="13.347659"
       inkscape:tile-x0="46.972092"
       inkscape:transform-center-y="-20.416181"
       ry="3.1834223"
       y="808.98444"
       x="35.084991"
       height="6.3668447"
       width="0"
       id="use3187"
       style="fill:#0099ba;fill-opacity:1;stroke:none"
       transform="matrix(1,0,-0.30901699,-0.95105652,0,0)" />
    <rect
       inkscape:tile-y0="13.347659"
       inkscape:tile-x0="46.972092"
       inkscape:transform-center-y="-20.416181"
       ry="3.1834223"
       y="812.14709"
       x="55.05331"
       height="6.3668447"
       width="0"
       id="use3189"
       style="fill:#0099ba;fill-opacity:1;stroke:none"
       transform="scale(1,-1)" />
    <rect
       inkscape:tile-y0="13.347659"
       inkscape:tile-x0="46.972092"
       inkscape:transform-center-y="-20.416181"
       ry="3.1834223"
       y="808.98444"
       x="75.021637"
       height="6.3668447"
       width="0"
       id="use3191"
       style="fill:#0099ba;fill-opacity:1;stroke:none"
       transform="matrix(1,0,0.30901699,-0.95105652,0,0)" />
    <rect
       inkscape:tile-y0="13.347659"
       inkscape:tile-x0="46.972092"
       inkscape:transform-center-y="-20.416181"
       ry="3.1834223"
       y="797.63928"
       x="99.703835"
       height="6.3668447"
       width="0"
       id="use3193"
       style="fill:#0099ba;fill-opacity:1;stroke:none"
       transform="matrix(1,0,0.58778525,-0.80901699,0,0)" />
    <rect
       inkscape:tile-y0="13.347659"
       inkscape:tile-x0="46.972092"
       inkscape:transform-center-y="-20.416181"
       ry="3.1834223"
       y="769.04779"
       x="139.64047"
       height="6.3668447"
       width="0"
       id="use3195"
       style="fill:#0099ba;fill-opacity:1;stroke:none"
       transform="matrix(1,0,0.80901699,-0.58778525,0,0)" />
    <rect
       inkscape:tile-y0="13.347659"
       inkscape:tile-x0="46.972092"
       inkscape:transform-center-y="-20.416181"
       ry="3.1834223"
       y="674.72693"
       x="244.19597"
       height="6.3668447"
       width="0"
       id="use3197"
       style="fill:#0099ba;fill-opacity:1;stroke:none"
       transform="matrix(1,0,0.95105652,-0.30901699,0,0)" />
    <rect
       inkscape:tile-y0="13.347659"
       inkscape:tile-x0="46.972092"
       inkscape:transform-center-y="-20.416181"
       ry="3.1834223"
       y="61.456173"
       x="928.65662"
       height="6.3668447"
       width="0"
       id="use3199"
       style="fill:#0099ba;fill-opacity:1;stroke:none"
       transform="matrix(1,0,1,0,0,0)" />
    <rect
       inkscape:tile-y0="13.347659"
       inkscape:tile-x0="46.972092"
       inkscape:transform-center-y="-20.416181"
       ry="3.1834223"
       y="1072.4796"
       x="-134.08934"
       height="6.3668447"
       width="0"
       id="use3201"
       style="fill:#0099ba;fill-opacity:1;stroke:none"
       transform="matrix(1,0,0.95105652,0.30901699,0,0)" />
    <rect
       inkscape:tile-y0="13.347659"
       inkscape:tile-x0="46.972092"
       inkscape:transform-center-y="-20.416181"
       ry="3.1834223"
       y="978.15875"
       x="-29.533854"
       height="6.3668447"
       width="0"
       id="use3203"
       style="fill:#0099ba;fill-opacity:1;stroke:none"
       transform="matrix(1,0,0.80901699,0.58778525,0,0)" />
    <rect
       inkscape:tile-y0="13.347659"
       inkscape:tile-x0="46.972092"
       inkscape:transform-center-y="-20.416181"
       ry="3.1834223"
       y="949.56726"
       x="10.402788"
       height="6.3668447"
       width="0"
       id="use3205"
       style="fill:#0099ba;fill-opacity:1;stroke:none"
       transform="matrix(1,0,0.58778525,0.80901699,0,0)" />
    <rect
       inkscape:tile-y0="13.347659"
       inkscape:tile-x0="46.972092"
       inkscape:transform-center-y="-20.416181"
       ry="3.1834223"
       y="938.22211"
       x="35.084991"
       height="6.3668447"
       width="0"
       id="use3207"
       style="fill:#0099ba;fill-opacity:1;stroke:none"
       transform="matrix(1,0,0.30901699,0.95105652,0,0)" />
    <path
       style="fill:#333333;stroke:none;stroke-width:0.62368882000000003px;stroke-linecap:butt;stroke-linejoin:miter;stroke-opacity:1"
       d="M 26.28125 61.84375 L 25.21875 63.71875 C 24.995193 63.751103 24.784285 63.806081 24.5625 63.84375 L 22.875 62.375 L 17.375 64.15625 L 16.9375 66.3125 C 16.737281 66.412001 16.541176 66.520822 16.34375 66.625 L 14.3125 65.75 L 9.625 69.15625 L 9.875 71.34375 C 9.7274804 71.488301 9.5817681 71.633449 9.4375 71.78125 L 7.21875 71.59375 L 3.8125 76.28125 L 4.71875 78.28125 C 4.6193437 78.470908 4.5013595 78.651533 4.40625 78.84375 L 2.25 79.34375 L 0.46875 84.875 L 1.96875 86.46875 C 1.9335336 86.677126 1.8742896 86.883821 1.84375 87.09375 L -0.0625 88.28125 L -0.0625 94.0625 L 1.84375 95.09375 C 1.8772559 95.327694 1.9294376 95.549243 1.96875 95.78125 L 0.5 97.46875 L 2.28125 102.96875 L 4.40625 103.375 C 4.5114818 103.588 4.6394883 103.79015 4.75 104 L 3.84375 106 L 7.28125 110.71875 L 9.4375 110.4375 C 9.5921461 110.59589 9.7478636 110.7516 9.90625 110.90625 L 9.71875 113.125 L 14.40625 116.53125 L 16.375 115.625 C 16.572604 115.72868 16.768358 115.8385 16.96875 115.9375 L 17.46875 118.0625 L 22.96875 119.875 L 24.59375 118.40625 C 24.803484 118.4415 25.007435 118.46949 25.21875 118.5 L 26.375 120.40625 L 32.1875 120.40625 L 33.21875 118.5 C 33.439061 118.4682 33.656397 118.41194 33.875 118.375 L 35.5625 119.84375 L 41.09375 118.03125 L 41.5 115.90625 C 41.70042 115.80695 41.896117 115.69772 42.09375 115.59375 L 44.125 116.46875 L 48.8125 113.0625 L 48.5625 110.90625 C 48.725958 110.7467 48.871771 110.56977 49.03125 110.40625 L 51.25 110.625 L 54.65625 105.9375 L 53.75 103.96875 C 53.858167 103.763 53.95941 103.55252 54.0625 103.34375 L 56.1875 102.84375 L 57.96875 97.34375 L 56.5 95.78125 C 56.541141 95.539022 56.590204 95.306838 56.625 95.0625 L 58.5 93.9375 L 58.5 88.15625 L 56.625 87.09375 C 56.591441 86.863616 56.539188 86.634514 56.5 86.40625 L 57.9375 84.78125 L 56.15625 79.25 L 54.03125 78.84375 C 53.931749 78.64333 53.822928 78.447633 53.71875 78.25 L 54.5625 76.1875 L 51.1875 71.53125 L 48.96875 71.75 C 48.823993 71.602456 48.679254 71.456789 48.53125 71.3125 L 48.71875 69.09375 L 44.0625 65.6875 L 42.0625 66.59375 C 41.86469 66.489864 41.669343 66.380454 41.46875 66.28125 L 40.96875 64.15625 L 35.4375 62.34375 L 33.84375 63.8125 C 33.636909 63.777739 33.427118 63.748894 33.21875 63.71875 L 32.0625 61.84375 L 26.28125 61.84375 z M 29.21875 72.28125 C 39.623401 72.28125 48.0625 80.720349 48.0625 91.125 C 48.0625 101.52965 39.623401 109.9375 29.21875 109.9375 C 18.814099 109.9375 10.375 101.52965 10.375 91.125 C 10.375 80.720349 18.814099 72.28125 29.21875 72.28125 z "
       transform="translate(0,924.36212)"
       id="path3591" />
    <path
       inkscape:connector-curvature="0"
       style="fill:#333333;stroke:none;stroke-width:0.28065550000000000px;stroke-linecap:butt;stroke-linejoin:miter;stroke-opacity:1"
       d="m 29.21875,1007.0146 c 4.682018,0 8.479552,3.7975 8.479552,8.4795 0,4.6821 -3.797534,8.4655 -8.479552,8.4655 -4.682018,0 -8.479552,-3.7834 -8.479552,-8.4655 0,-4.682 3.797534,-8.4795 8.479552,-8.4795 z"
       id="path3591-1" />
    <path
       style="fill:#333333;stroke:none"
       d="m 98.5,1007.1121 c -10.405495,0 -18.84375,8.4383 -18.84375,18.8438 0,10.4057 8.438255,18.8125 18.84375,18.8125 10.40549,0 18.84375,-8.4068 18.84375,-18.8125 0,-10.4055 -8.43826,-18.8438 -18.84375,-18.8438 z m 0,8.2188 c 5.86619,0 10.625,4.7588 10.625,10.625 0,5.8663 -4.75881,10.5937 -10.625,10.5937 -5.866189,0 -10.625,-4.7274 -10.625,-10.5937 0,-5.8662 4.758811,-10.625 10.625,-10.625 z"
       id="path4551"
       inkscape:connector-curvature="0" />
    <path
       style="font-size:medium;font-style:normal;font-variant:normal;font-weight:normal;font-stretch:normal;text-indent:0;text-align:start;text-decoration:none;line-height:normal;letter-spacing:normal;word-spacing:normal;text-transform:none;direction:ltr;block-progression:tb;writing-mode:lr-tb;text-anchor:start;baseline-shift:baseline;color:#000000;fill:#98bf0c;fill-opacity:1;stroke:none;stroke-width:9.69999980999999960;marker:none;visibility:visible;display:inline;overflow:visible;enable-background:accumulate;font-family:Sans;-inkscape-font-specification:Sans"
       d="m 98.03125,946.625 c -4.520833,0 -8.151638,3.21029 -10.03125,6.65625 -1.879612,3.44596 -2.829529,7.45444 -3.5,11.8125 -1.340941,8.71612 -1.3125,18.875 -1.3125,26.375 l 9.6875,0 c 0,-7.5 0.05969,-17.34112 1.21875,-24.875 0.579529,-3.76694 1.473362,-6.94596 2.40625,-8.65625 0.932888,-1.71029 1.052083,-1.625 1.53125,-1.625 l 0,-9.6875 z"
       id="path4562"
       inkscape:connector-curvature="0" />
    <path
       style="font-size:medium;font-style:normal;font-variant:normal;font-weight:normal;font-stretch:normal;text-indent:0;text-align:start;text-decoration:none;line-height:normal;letter-spacing:normal;word-spacing:normal;text-transform:none;direction:ltr;block-progression:tb;writing-mode:lr-tb;text-anchor:start;baseline-shift:baseline;color:#000000;fill:#0099ba;fill-opacity:1;stroke:none;stroke-width:7.19999980999999960;marker:none;visibility:visible;display:inline;overflow:visible;enable-background:accumulate;font-family:Sans;-inkscape-font-specification:Sans"
       d="m 14.1875,937.58087 c -1.880738,0.003 -3.5903,1.71301 -3.59375,3.59375 l 0,39.21875 c 4.11e-4,2.20958 2.43328,4.05923 4.5625,3.46875 16.927074,-4.72434 26.410246,-2.52416 33.375,2.5 6.964754,5.02416 11.593756,13.6108 16.75,22.43748 0.634309,1.0835 1.869533,1.7876 3.125,1.7813 l 40.65625,0 c 1.39465,0.01 2.75313,-0.8787 3.3125,-2.1563 l 9.59375,-21.56248 c 0.4841,-1.08931 0.37951,-2.42007 -0.26884,-3.42037 -0.64834,-1.00031 -1.82037,-1.6392 -3.01241,-1.64213 l -50.0625,0 -9.21875,-41.40625 c -0.35362,-1.57686 -1.883989,-2.80662 -3.5,-2.8125 z m 3.59375,9.1875 33.21875,0 6.21875,25.12723 -38.723214,0 z"
       id="path4554"
       inkscape:connector-curvature="0"
       sodipodi:nodetypes="ccccscccccscccccccccc" />
    <path
       style="font-size:medium;font-style:normal;font-variant:normal;font-weight:normal;font-stretch:normal;text-indent:0;text-align:start;text-decoration:none;line-height:normal;letter-spacing:normal;word-spacing:normal;text-transform:none;direction:ltr;block-progression:tb;writing-mode:lr-tb;text-anchor:start;baseline-shift:baseline;color:#000000;fill:#98bf0c;fill-opacity:1;stroke:none;stroke-width:9.69999980999999960;marker:none;visibility:visible;display:inline;overflow:visible;enable-background:accumulate;font-family:Sans;-inkscape-font-specification:Sans"
       d="M 30.4375,973.39337 C 21.166746,972.9836 11.625202,975.79768 3.5,982.54962 a 4.8594001,4.8594001 0 1 0 6.21875,7.46875 c 10.125535,-8.41419 22.107767,-8.83566 32.5625,-3.8125 10.454733,5.02316 19.012882,15.67483 20.9375,29.68753 a 4.859174,4.859174 0 1 0 9.625,-1.3438 C 70.48077,997.34538 59.906188,983.8971 46.5,977.45587 c -5.027321,-2.41546 -10.500047,-3.81664 -16.0625,-4.0625 z"
       id="path4558"
       inkscape:connector-curvature="0" />
  </g>
</svg>
