<?xml version="1.0" encoding="UTF-8" standalone="no"?>
<!-- Created with Inkscape (http://www.inkscape.org/) -->

<svg
   xmlns:dc="http://purl.org/dc/elements/1.1/"
   xmlns:cc="http://creativecommons.org/ns#"
   xmlns:rdf="http://www.w3.org/1999/02/22-rdf-syntax-ns#"
   xmlns:svg="http://www.w3.org/2000/svg"
   xmlns="http://www.w3.org/2000/svg"
   xmlns:sodipodi="http://sodipodi.sourceforge.net/DTD/sodipodi-0.dtd"
   xmlns:inkscape="http://www.inkscape.org/namespaces/inkscape"
   width="128"
   height="128"
   id="svg2"
   version="1.1"
   inkscape:version="0.48.5 r10040"
   sodipodi:docname="ovineWS.svg">
  <defs
     id="defs4" />
  <sodipodi:namedview
     id="base"
     pagecolor="#ffffff"
     bordercolor="#666666"
     borderopacity="1.0"
     inkscape:pageopacity="0.0"
     inkscape:pageshadow="2"
     inkscape:zoom="3.959798"
     inkscape:cx="186.37968"
     inkscape:cy="126.73853"
     inkscape:document-units="px"
     inkscape:current-layer="layer1"
     showgrid="false"
     inkscape:window-width="2560"
     inkscape:window-height="1378"
     inkscape:window-x="-8"
     inkscape:window-y="-8"
     inkscape:window-maximized="1"
     width="128px">
    <inkscape:grid
       type="xygrid"
       id="grid2998"
       empspacing="5"
       visible="true"
       enabled="true"
       snapvisiblegridlinesonly="true" />
  </sodipodi:namedview>
  <metadata
     id="metadata7">
    <rdf:RDF>
      <cc:Work
         rdf:about="">
        <dc:format>image/svg+xml</dc:format>
        <dc:type
           rdf:resource="http://purl.org/dc/dcmitype/StillImage" />
        <dc:title />
      </cc:Work>
    </rdf:RDF>
  </metadata>
  <g
     inkscape:label="Calque 1"
     inkscape:groupmode="layer"
     id="layer1"
     transform="translate(0,-924.36212)">
    <rect
       inkscape:tile-y0="13.347659"
       inkscape:tile-x0="46.972092"
       inkscape:transform-center-y="-20.416181"
       ry="3.1834223"
       y="938.22211"
       x="75.021637"
       height="6.3668447"
       width="0"
       id="use3171"
       style="fill:#0099ba;fill-opacity:1;stroke:none"
       transform="matrix(1,0,-0.30901699,0.95105652,0,0)" />
    <rect
       inkscape:tile-y0="13.347659"
       inkscape:tile-x0="46.972092"
       inkscape:transform-center-y="-20.416181"
       ry="3.1834223"
       y="949.56726"
       x="99.703835"
       height="6.3668447"
       width="0"
       id="use3173"
       style="fill:#0099ba;fill-opacity:1;stroke:none"
       transform="matrix(1,0,-0.58778525,0.80901699,0,0)" />
    <rect
       inkscape:tile-y0="13.347659"
       inkscape:tile-x0="46.972092"
       inkscape:transform-center-y="-20.416181"
       ry="3.1834223"
       y="978.15875"
       x="139.64047"
       height="6.3668447"
       width="0"
       id="use3175"
       style="fill:#0099ba;fill-opacity:1;stroke:none"
       transform="matrix(1,0,-0.80901699,0.58778525,0,0)" />
    <rect
       inkscape:tile-y0="13.347659"
       inkscape:tile-x0="46.972092"
       inkscape:transform-center-y="-20.416181"
       ry="3.1834223"
       y="1072.4796"
       x="244.19597"
       height="6.3668447"
       width="0"
       id="use3177"
       style="fill:#0099ba;fill-opacity:1;stroke:none"
       transform="matrix(1,0,-0.95105652,0.30901699,0,0)" />
    <rect
       inkscape:tile-y0="13.347659"
       inkscape:tile-x0="46.972092"
       inkscape:transform-center-y="-20.416181"
       ry="3.1834223"
       y="61.456173"
       x="-818.54999"
       height="6.3668447"
       width="0"
       id="use3179"
       style="fill:#0099ba;fill-opacity:1;stroke:none"
       transform="matrix(1,0,-1,0,0,0)" />
    <rect
       inkscape:tile-y0="13.347659"
       inkscape:tile-x0="46.972092"
       inkscape:transform-center-y="-20.416181"
       ry="3.1834223"
       y="674.72693"
       x="-134.08934"
       height="6.3668447"
       width="0"
       id="use3181"
       style="fill:#0099ba;fill-opacity:1;stroke:none"
       transform="matrix(1,0,-0.95105652,-0.30901699,0,0)" />
    <rect
       inkscape:tile-y0="13.347659"
       inkscape:tile-x0="46.972092"
       inkscape:transform-center-y="-20.416181"
       ry="3.1834223"
       y="769.04779"
       x="-29.533855"
       height="6.3668447"
       width="0"
       id="use3183"
       style="fill:#0099ba;fill-opacity:1;stroke:none"
       transform="matrix(1,0,-0.80901699,-0.58778525,0,0)" />
    <rect
       inkscape:tile-y0="13.347659"
       inkscape:tile-x0="46.972092"
       inkscape:transform-center-y="-20.416181"
       ry="3.1834223"
       y="797.63928"
       x="10.40279"
       height="6.3668447"
       width="0"
       id="use3185"
       style="fill:#0099ba;fill-opacity:1;stroke:none"
       transform="matrix(1,0,-0.58778525,-0.80901699,0,0)" />
    <rect
       inkscape:tile-y0="13.347659"
       inkscape:tile-x0="46.972092"
       inkscape:transform-center-y="-20.416181"
       ry="3.1834223"
       y="808.98444"
       x="35.084991"
       height="6.3668447"
       width="0"
       id="use3187"
       style="fill:#0099ba;fill-opacity:1;stroke:none"
       transform="matrix(1,0,-0.30901699,-0.95105652,0,0)" />
    <rect
       inkscape:tile-y0="13.347659"
       inkscape:tile-x0="46.972092"
       inkscape:transform-center-y="-20.416181"
       ry="3.1834223"
       y="812.14709"
       x="55.05331"
       height="6.3668447"
       width="0"
       id="use3189"
       style="fill:#0099ba;fill-opacity:1;stroke:none"
       transform="scale(1,-1)" />
    <rect
       inkscape:tile-y0="13.347659"
       inkscape:tile-x0="46.972092"
       inkscape:transform-center-y="-20.416181"
       ry="3.1834223"
       y="808.98444"
       x="75.021637"
       height="6.3668447"
       width="0"
       id="use3191"
       style="fill:#0099ba;fill-opacity:1;stroke:none"
       transform="matrix(1,0,0.30901699,-0.95105652,0,0)" />
    <rect
       inkscape:tile-y0="13.347659"
       inkscape:tile-x0="46.972092"
       inkscape:transform-center-y="-20.416181"
       ry="3.1834223"
       y="797.63928"
       x="99.703835"
       height="6.3668447"
       width="0"
       id="use3193"
       style="fill:#0099ba;fill-opacity:1;stroke:none"
       transform="matrix(1,0,0.58778525,-0.80901699,0,0)" />
    <rect
       inkscape:tile-y0="13.347659"
       inkscape:tile-x0="46.972092"
       inkscape:transform-center-y="-20.416181"
       ry="3.1834223"
       y="769.04779"
       x="139.64047"
       height="6.3668447"
       width="0"
       id="use3195"
       style="fill:#0099ba;fill-opacity:1;stroke:none"
       transform="matrix(1,0,0.80901699,-0.58778525,0,0)" />
    <rect
       inkscape:tile-y0="13.347659"
       inkscape:tile-x0="46.972092"
       inkscape:transform-center-y="-20.416181"
       ry="3.1834223"
       y="674.72693"
       x="244.19597"
       height="6.3668447"
       width="0"
       id="use3197"
       style="fill:#0099ba;fill-opacity:1;stroke:none"
       transform="matrix(1,0,0.95105652,-0.30901699,0,0)" />
    <rect
       inkscape:tile-y0="13.347659"
       inkscape:tile-x0="46.972092"
       inkscape:transform-center-y="-20.416181"
       ry="3.1834223"
       y="61.456173"
       x="928.65662"
       height="6.3668447"
       width="0"
       id="use3199"
       style="fill:#0099ba;fill-opacity:1;stroke:none"
       transform="matrix(1,0,1,0,0,0)" />
    <rect
       inkscape:tile-y0="13.347659"
       inkscape:tile-x0="46.972092"
       inkscape:transform-center-y="-20.416181"
       ry="3.1834223"
       y="1072.4796"
       x="-134.08934"
       height="6.3668447"
       width="0"
       id="use3201"
       style="fill:#0099ba;fill-opacity:1;stroke:none"
       transform="matrix(1,0,0.95105652,0.30901699,0,0)" />
    <rect
       inkscape:tile-y0="13.347659"
       inkscape:tile-x0="46.972092"
       inkscape:transform-center-y="-20.416181"
       ry="3.1834223"
       y="978.15875"
       x="-29.533854"
       height="6.3668447"
       width="0"
       id="use3203"
       style="fill:#0099ba;fill-opacity:1;stroke:none"
       transform="matrix(1,0,0.80901699,0.58778525,0,0)" />
    <rect
       inkscape:tile-y0="13.347659"
       inkscape:tile-x0="46.972092"
       inkscape:transform-center-y="-20.416181"
       ry="3.1834223"
       y="949.56726"
       x="10.402788"
       height="6.3668447"
       width="0"
       id="use3205"
       style="fill:#0099ba;fill-opacity:1;stroke:none"
       transform="matrix(1,0,0.58778525,0.80901699,0,0)" />
    <rect
       inkscape:tile-y0="13.347659"
       inkscape:tile-x0="46.972092"
       inkscape:transform-center-y="-20.416181"
       ry="3.1834223"
       y="938.22211"
       x="35.084991"
       height="6.3668447"
       width="0"
       id="use3207"
       style="fill:#0099ba;fill-opacity:1;stroke:none"
       transform="matrix(1,0,0.30901699,0.95105652,0,0)" />
    <path
       style="fill:#98bf0c;stroke:#333333;stroke-width:3.29999999999999980;stroke-linecap:butt;stroke-linejoin:miter;stroke-opacity:1;stroke-miterlimit:4;stroke-dasharray:none"
       d="m 15.404826,74.966991 c 0,0 2.686674,42.820059 7.954952,44.446709 5.148119,1.58956 1.515228,-45.709399 1.515228,-45.709399 z"
       id="path3793"
       inkscape:connector-curvature="0"
       transform="translate(0,924.36212)"
       sodipodi:nodetypes="cscc" />
    <path
       style="fill:#98bf0c;stroke:#333333;stroke-width:3.29999999999999980;stroke-linecap:butt;stroke-linejoin:miter;stroke-opacity:1;stroke-miterlimit:4;stroke-dasharray:none"
       d="m 33.082496,84.942248 c 0.335223,-0.106662 6.580583,38.816462 9.975256,34.345182 4.039299,-5.32034 1.262691,-37.249371 1.262691,-37.249371 z"
       id="path3795"
       inkscape:connector-curvature="0"
       transform="translate(0,924.36212)"
       sodipodi:nodetypes="cscc" />
    <path
       style="fill:#98bf0c;stroke:#333333;stroke-width:3.29999999999999980;stroke-linecap:butt;stroke-linejoin:miter;stroke-opacity:1;stroke-miterlimit:4;stroke-dasharray:none"
       d="m 65.659916,82.290597 c 0,0 2.40929,38.934283 7.323606,36.744303 4.297858,-1.91527 1.515229,-40.532375 1.515229,-40.532375 z"
       id="path3797"
       inkscape:connector-curvature="0"
       transform="translate(0,924.36212)"
       sodipodi:nodetypes="cscc" />
    <path
       style="fill:#98bf0c;stroke:#333333;stroke-width:3.29999999999999980;stroke-linecap:butt;stroke-linejoin:miter;stroke-opacity:1;stroke-miterlimit:4;stroke-dasharray:none"
       d="m 77.024132,73.956839 c 0,0 2.561484,48.179531 7.702413,45.330591 4.50573,-2.49693 2.651651,-41.795057 2.651651,-41.795057 z"
       id="path3799"
       inkscape:connector-curvature="0"
       transform="translate(0,924.36212)"
       sodipodi:nodetypes="cscc" />
    <path
       style="fill:#ffffff;stroke:#333333;stroke-width:3.89999999999999990;stroke-linecap:butt;stroke-linejoin:miter;stroke-opacity:1;stroke-miterlimit:4;stroke-dasharray:none"
       d="M 12.321429,60.857143 C -2.1245259,55.129519 0.00156956,42.493554 16.25,41.392857 c -0.856963,-15.005064 5.08323,-19.697201 18.035714,-13.75 4.315323,-7.57592 6.870726,-18.3050303 22.142858,-6.25 12.533358,-9.750854 18.852949,-4.312499 22.857143,6.785714 11.414936,-2.588122 18.702523,1.340623 21.071425,13.035714 2.28338,14.599839 4.38764,28.971718 -3.571425,30.535715 -0.949774,18.216468 -10.215884,14.322079 -19.642857,10 C 69.99784,95.123411 61.430731,95.698006 51.428572,83.357143 35.363115,95.937234 28.959666,89.936541 25.178572,78.892857 15.069223,79.370145 6.0630092,78.618226 12.321429,60.857143 z"
       id="path3019"
       inkscape:connector-curvature="0"
       transform="translate(0,924.36212)"
       sodipodi:nodetypes="ccccccccccc" />
    <path
       style="fill:#ffffff;stroke:#333333;stroke-width:3.9000001;stroke-linecap:butt;stroke-linejoin:miter;stroke-miterlimit:4;stroke-opacity:1;stroke-dasharray:none"
       d="m 91.428572,52.464285 c -4.294258,2.607228 -2.173276,20.744224 14.464288,21.964286 7.52625,0.551914 15.88224,2.202499 17.32143,-3.928571 0.68023,-2.89786 2.41297,-5.238972 2.67857,-6.071429 1.52138,-4.768427 -4.20623,-16.121594 -9.82143,-18.75 C 105.19704,40.588397 96.25,44.785714 96.25,44.785714 c 0,0 -11.227417,-5.202926 -13.392857,-0.714286 -2.012039,4.170664 8.571429,8.392857 8.571429,8.392857 z"
       id="path3021"
       inkscape:connector-curvature="0"
       sodipodi:nodetypes="csssscsc"
       transform="translate(0,924.36212)" />
    <path
       sodipodi:type="arc"
       style="fill:#ffffff;fill-opacity:1;stroke:#333333;stroke-width:3.9000001;stroke-linecap:round;stroke-linejoin:round;stroke-miterlimit:4;stroke-dasharray:none"
       id="path3791"
       sodipodi:cx="112.76786"
       sodipodi:cy="58.625"
       sodipodi:rx="0.98214287"
       sodipodi:ry="0.98214287"
       d="m 113.75,58.625 a 0.98214287,0.98214287 0 1 1 -1.96428,0 0.98214287,0.98214287 0 1 1 1.96428,0 z"
       transform="matrix(0.80968332,0,0,0.80968332,21.617856,936.34533)" />
  </g>
</svg>
