<?xml version="1.0" encoding="UTF-8" standalone="no"?>
<!-- Created with Inkscape (http://www.inkscape.org/) -->

<svg
   xmlns:dc="http://purl.org/dc/elements/1.1/"
   xmlns:cc="http://creativecommons.org/ns#"
   xmlns:rdf="http://www.w3.org/1999/02/22-rdf-syntax-ns#"
   xmlns:svg="http://www.w3.org/2000/svg"
   xmlns="http://www.w3.org/2000/svg"
   xmlns:sodipodi="http://sodipodi.sourceforge.net/DTD/sodipodi-0.dtd"
   xmlns:inkscape="http://www.inkscape.org/namespaces/inkscape"
   width="128"
   height="128"
   id="svg2"
   version="1.1"
   inkscape:version="0.48.5 r10040"
   sodipodi:docname="resource.svg">
  <defs
     id="defs4" />
  <sodipodi:namedview
     id="base"
     pagecolor="#ffffff"
     bordercolor="#666666"
     borderopacity="1.0"
     inkscape:pageopacity="0.0"
     inkscape:pageshadow="2"
     inkscape:zoom="2.8"
     inkscape:cx="-146.31453"
     inkscape:cy="37.115227"
     inkscape:document-units="px"
     inkscape:current-layer="layer1"
     showgrid="false"
     inkscape:window-width="2560"
     inkscape:window-height="1378"
     inkscape:window-x="-8"
     inkscape:window-y="-8"
     inkscape:window-maximized="1"
     width="128px">
    <inkscape:grid
       type="xygrid"
       id="grid2998"
       empspacing="5"
       visible="true"
       enabled="true"
       snapvisiblegridlinesonly="true" />
  </sodipodi:namedview>
  <metadata
     id="metadata7">
    <rdf:RDF>
      <cc:Work
         rdf:about="">
        <dc:format>image/svg+xml</dc:format>
        <dc:type
           rdf:resource="http://purl.org/dc/dcmitype/StillImage" />
        <dc:title />
      </cc:Work>
    </rdf:RDF>
  </metadata>
  <g
     inkscape:label="Calque 1"
     inkscape:groupmode="layer"
     id="layer1"
     transform="translate(0,-924.36212)">
    <rect
       inkscape:tile-y0="13.347659"
       inkscape:tile-x0="46.972092"
       inkscape:transform-center-y="-20.416181"
       ry="3.1834223"
       y="938.22211"
       x="75.021637"
       height="6.3668447"
       width="0"
       id="use3171"
       style="fill:#0099ba;fill-opacity:1;stroke:none"
       transform="matrix(1,0,-0.30901699,0.95105652,0,0)" />
    <rect
       inkscape:tile-y0="13.347659"
       inkscape:tile-x0="46.972092"
       inkscape:transform-center-y="-20.416181"
       ry="3.1834223"
       y="949.56726"
       x="99.703835"
       height="6.3668447"
       width="0"
       id="use3173"
       style="fill:#0099ba;fill-opacity:1;stroke:none"
       transform="matrix(1,0,-0.58778525,0.80901699,0,0)" />
    <rect
       inkscape:tile-y0="13.347659"
       inkscape:tile-x0="46.972092"
       inkscape:transform-center-y="-20.416181"
       ry="3.1834223"
       y="978.15875"
       x="139.64047"
       height="6.3668447"
       width="0"
       id="use3175"
       style="fill:#0099ba;fill-opacity:1;stroke:none"
       transform="matrix(1,0,-0.80901699,0.58778525,0,0)" />
    <rect
       inkscape:tile-y0="13.347659"
       inkscape:tile-x0="46.972092"
       inkscape:transform-center-y="-20.416181"
       ry="3.1834223"
       y="1072.4796"
       x="244.19597"
       height="6.3668447"
       width="0"
       id="use3177"
       style="fill:#0099ba;fill-opacity:1;stroke:none"
       transform="matrix(1,0,-0.95105652,0.30901699,0,0)" />
    <rect
       inkscape:tile-y0="13.347659"
       inkscape:tile-x0="46.972092"
       inkscape:transform-center-y="-20.416181"
       ry="3.1834223"
       y="61.456173"
       x="-818.54999"
       height="6.3668447"
       width="0"
       id="use3179"
       style="fill:#0099ba;fill-opacity:1;stroke:none"
       transform="matrix(1,0,-1,0,0,0)" />
    <rect
       inkscape:tile-y0="13.347659"
       inkscape:tile-x0="46.972092"
       inkscape:transform-center-y="-20.416181"
       ry="3.1834223"
       y="674.72693"
       x="-134.08934"
       height="6.3668447"
       width="0"
       id="use3181"
       style="fill:#0099ba;fill-opacity:1;stroke:none"
       transform="matrix(1,0,-0.95105652,-0.30901699,0,0)" />
    <rect
       inkscape:tile-y0="13.347659"
       inkscape:tile-x0="46.972092"
       inkscape:transform-center-y="-20.416181"
       ry="3.1834223"
       y="769.04779"
       x="-29.533855"
       height="6.3668447"
       width="0"
       id="use3183"
       style="fill:#0099ba;fill-opacity:1;stroke:none"
       transform="matrix(1,0,-0.80901699,-0.58778525,0,0)" />
    <rect
       inkscape:tile-y0="13.347659"
       inkscape:tile-x0="46.972092"
       inkscape:transform-center-y="-20.416181"
       ry="3.1834223"
       y="797.63928"
       x="10.40279"
       height="6.3668447"
       width="0"
       id="use3185"
       style="fill:#0099ba;fill-opacity:1;stroke:none"
       transform="matrix(1,0,-0.58778525,-0.80901699,0,0)" />
    <rect
       inkscape:tile-y0="13.347659"
       inkscape:tile-x0="46.972092"
       inkscape:transform-center-y="-20.416181"
       ry="3.1834223"
       y="808.98444"
       x="35.084991"
       height="6.3668447"
       width="0"
       id="use3187"
       style="fill:#0099ba;fill-opacity:1;stroke:none"
       transform="matrix(1,0,-0.30901699,-0.95105652,0,0)" />
    <rect
       inkscape:tile-y0="13.347659"
       inkscape:tile-x0="46.972092"
       inkscape:transform-center-y="-20.416181"
       ry="3.1834223"
       y="812.14709"
       x="55.05331"
       height="6.3668447"
       width="0"
       id="use3189"
       style="fill:#0099ba;fill-opacity:1;stroke:none"
       transform="scale(1,-1)" />
    <rect
       inkscape:tile-y0="13.347659"
       inkscape:tile-x0="46.972092"
       inkscape:transform-center-y="-20.416181"
       ry="3.1834223"
       y="808.98444"
       x="75.021637"
       height="6.3668447"
       width="0"
       id="use3191"
       style="fill:#0099ba;fill-opacity:1;stroke:none"
       transform="matrix(1,0,0.30901699,-0.95105652,0,0)" />
    <rect
       inkscape:tile-y0="13.347659"
       inkscape:tile-x0="46.972092"
       inkscape:transform-center-y="-20.416181"
       ry="3.1834223"
       y="797.63928"
       x="99.703835"
       height="6.3668447"
       width="0"
       id="use3193"
       style="fill:#0099ba;fill-opacity:1;stroke:none"
       transform="matrix(1,0,0.58778525,-0.80901699,0,0)" />
    <rect
       inkscape:tile-y0="13.347659"
       inkscape:tile-x0="46.972092"
       inkscape:transform-center-y="-20.416181"
       ry="3.1834223"
       y="769.04779"
       x="139.64047"
       height="6.3668447"
       width="0"
       id="use3195"
       style="fill:#0099ba;fill-opacity:1;stroke:none"
       transform="matrix(1,0,0.80901699,-0.58778525,0,0)" />
    <rect
       inkscape:tile-y0="13.347659"
       inkscape:tile-x0="46.972092"
       inkscape:transform-center-y="-20.416181"
       ry="3.1834223"
       y="674.72693"
       x="244.19597"
       height="6.3668447"
       width="0"
       id="use3197"
       style="fill:#0099ba;fill-opacity:1;stroke:none"
       transform="matrix(1,0,0.95105652,-0.30901699,0,0)" />
    <rect
       inkscape:tile-y0="13.347659"
       inkscape:tile-x0="46.972092"
       inkscape:transform-center-y="-20.416181"
       ry="3.1834223"
       y="61.456173"
       x="928.65662"
       height="6.3668447"
       width="0"
       id="use3199"
       style="fill:#0099ba;fill-opacity:1;stroke:none"
       transform="matrix(1,0,1,0,0,0)" />
    <rect
       inkscape:tile-y0="13.347659"
       inkscape:tile-x0="46.972092"
       inkscape:transform-center-y="-20.416181"
       ry="3.1834223"
       y="1072.4796"
       x="-134.08934"
       height="6.3668447"
       width="0"
       id="use3201"
       style="fill:#0099ba;fill-opacity:1;stroke:none"
       transform="matrix(1,0,0.95105652,0.30901699,0,0)" />
    <rect
       inkscape:tile-y0="13.347659"
       inkscape:tile-x0="46.972092"
       inkscape:transform-center-y="-20.416181"
       ry="3.1834223"
       y="978.15875"
       x="-29.533854"
       height="6.3668447"
       width="0"
       id="use3203"
       style="fill:#0099ba;fill-opacity:1;stroke:none"
       transform="matrix(1,0,0.80901699,0.58778525,0,0)" />
    <rect
       inkscape:tile-y0="13.347659"
       inkscape:tile-x0="46.972092"
       inkscape:transform-center-y="-20.416181"
       ry="3.1834223"
       y="949.56726"
       x="10.402788"
       height="6.3668447"
       width="0"
       id="use3205"
       style="fill:#0099ba;fill-opacity:1;stroke:none"
       transform="matrix(1,0,0.58778525,0.80901699,0,0)" />
    <rect
       inkscape:tile-y0="13.347659"
       inkscape:tile-x0="46.972092"
       inkscape:transform-center-y="-20.416181"
       ry="3.1834223"
       y="938.22211"
       x="35.084991"
       height="6.3668447"
       width="0"
       id="use3207"
       style="fill:#0099ba;fill-opacity:1;stroke:none"
       transform="matrix(1,0,0.30901699,0.95105652,0,0)" />
    <path
       style="font-size:medium;font-style:normal;font-variant:normal;font-weight:normal;font-stretch:normal;text-indent:0;text-align:start;text-decoration:none;line-height:normal;letter-spacing:normal;word-spacing:normal;text-transform:none;direction:ltr;block-progression:tb;writing-mode:lr-tb;text-anchor:start;baseline-shift:baseline;color:#000000;fill:#0099ba;fill-opacity:1;stroke:none;stroke-width:9.39999962;marker:none;visibility:visible;display:inline;overflow:visible;enable-background:accumulate;font-family:Sans;-inkscape-font-specification:Sans"
       d="m 23.967251,951.96606 -1.245209,1.27759 -17.6197061,17.85509 c -1.7197883,1.7539 -1.6902159,4.91605 0.062071,6.63742 1.7522876,1.72137 4.9113419,1.69159 6.6309269,-0.0625 l 15.040344,-15.09514 6.39059,-0.0445 -11.624914,18.47385 21.479853,12.12152 14.133121,-18.60295 6.008133,28.97949 c 0.355523,2.5069 3.040687,4.4235 5.524288,3.9431 2.483601,-0.4803 4.262176,-1.266 3.659127,-3.725 l -7.782555,-40.2908 c -0.222284,-1.1971 -0.931437,-2.29622 -1.930074,-2.99143 -0.01022,-0.0208 -0.0206,-0.0416 -0.03113,-0.0623 -0.005,-0.006 -0.02615,0.005 -0.03113,0 -0.175218,-0.19401 -0.376786,-0.39979 -0.591475,-0.56089 L 46.689785,948.97969 c -8.427302,0.27694 -15.842691,0.88464 -22.722534,2.98637 z"
       id="path3792"
       inkscape:connector-curvature="0"
       sodipodi:nodetypes="cccscccccccscccccccc" />
    <path
       style="font-size:medium;font-style:normal;font-variant:normal;font-weight:normal;font-stretch:normal;text-indent:0;text-align:start;text-decoration:none;line-height:normal;letter-spacing:normal;word-spacing:normal;text-transform:none;direction:ltr;block-progression:tb;writing-mode:lr-tb;text-anchor:start;baseline-shift:baseline;color:#000000;fill:#333333;fill-opacity:1;stroke:none;stroke-width:7.0999999;marker:none;visibility:visible;display:inline;overflow:visible;enable-background:accumulate;font-family:Sans;-inkscape-font-specification:Sans"
       d="m 3.3901737,970.35088 a 3.5367469,3.540211 0 0 0 -0.9961671,6.73072 l 99.6167134,48.1122 a 3.5367469,3.540211 0 1 0 3.05076,-6.388 L 5.4447684,970.69365 a 3.5367469,3.540211 0 0 0 -2.0545947,-0.34277 z"
       id="path3020"
       inkscape:connector-curvature="0" />
    <path
       style="font-size:medium;font-style:normal;font-variant:normal;font-weight:normal;font-stretch:normal;text-indent:0;text-align:start;text-decoration:none;line-height:normal;letter-spacing:normal;word-spacing:normal;text-transform:none;direction:ltr;block-progression:tb;writing-mode:lr-tb;text-anchor:start;baseline-shift:baseline;color:#000000;fill:#0099ba;fill-opacity:1;stroke:none;stroke-width:12.89999962;marker:none;visibility:visible;display:inline;overflow:visible;enable-background:accumulate;font-family:Sans;-inkscape-font-specification:Sans"
       d="m 16.745039,990.79232 c -0.443005,0.56031 -0.791788,3.18937 -1.027297,3.86392 L 0.37054246,1043.5474 c -1.20594197,3.1916 0.64921284,7.1967 3.86194784,8.3375 3.2127351,1.1409 7.1746647,-0.7985 8.2477087,-4.0373 l 13.417125,-43.4381 14.973637,13.6796 3.735627,28.4497 c 0.322218,3.4334 3.823351,6.2267 7.238863,5.7753 3.415513,-0.4514 6.072438,-4.0585 5.493398,-7.458 l -4.015799,-30.7556 c -0.203469,-1.4846 -0.944553,-2.8896 -2.054595,-3.8951 l -2.89511,-2.8356 z"
       id="path3796"
       inkscape:connector-curvature="0"
       sodipodi:nodetypes="cccsccccsccccc" />
    <path
       sodipodi:type="arc"
       style="fill:#0099ba;fill-opacity:1;stroke:none"
       id="path3815"
       sodipodi:cx="72.276787"
       sodipodi:cy="15.901787"
       sodipodi:rx="12.544642"
       sodipodi:ry="12.544642"
       d="m 84.821429,15.901787 a 12.544642,12.544642 0 1 1 -25.089285,0 12.544642,12.544642 0 1 1 25.089285,0 z"
       transform="matrix(0.99616711,0,0,0.99714283,-5.3262885,921.01457)" />
    <path
       style="fill:#98bf0c;stroke:none"
       d="m 64.227522,1052.3621 c 0,-0.4452 9.967804,-28.8678 16.899263,-26.3531 6.470291,2.3474 11.164936,-20.4225 20.545945,-21.9015 2.95666,-0.4662 3.5248,0.7281 5.06978,3.2941 8.83628,14.6761 21.25749,44.9605 21.25749,44.9605 z"
       id="path3817"
       inkscape:connector-curvature="0"
       sodipodi:nodetypes="cssscc" />
  </g>
</svg>
