<?xml version="1.0" encoding="UTF-8" standalone="no"?>
<!-- Created with Inkscape (http://www.inkscape.org/) -->

<svg
   xmlns:dc="http://purl.org/dc/elements/1.1/"
   xmlns:cc="http://creativecommons.org/ns#"
   xmlns:rdf="http://www.w3.org/1999/02/22-rdf-syntax-ns#"
   xmlns:svg="http://www.w3.org/2000/svg"
   xmlns="http://www.w3.org/2000/svg"
   xmlns:sodipodi="http://sodipodi.sourceforge.net/DTD/sodipodi-0.dtd"
   xmlns:inkscape="http://www.inkscape.org/namespaces/inkscape"
   width="64px"
   height="64px"
   id="svg2999"
   version="1.1"
   inkscape:version="0.48.4 r9939"
   sodipodi:docname="structureDiagram.svg"
   inkscape:export-filename="C:\Users\sd226317\git\idm2014\contrib\papyrus-plugins\org.eclipse.papyrus.farming\icons\svg\structureDiagram.png"
   inkscape:export-xdpi="31.648352"
   inkscape:export-ydpi="31.648352">
  <defs
     id="defs3001" />
  <sodipodi:namedview
     id="base"
     pagecolor="#ffffff"
     bordercolor="#666666"
     borderopacity="1.0"
     inkscape:pageopacity="0.0"
     inkscape:pageshadow="2"
     inkscape:zoom="5.5"
     inkscape:cx="0.72727273"
     inkscape:cy="29.272727"
     inkscape:current-layer="layer1"
     showgrid="true"
     inkscape:document-units="px"
     inkscape:grid-bbox="true"
     inkscape:window-width="2048"
     inkscape:window-height="1090"
     inkscape:window-x="-8"
     inkscape:window-y="-8"
     inkscape:window-maximized="1" />
  <metadata
     id="metadata3004">
    <rdf:RDF>
      <cc:Work
         rdf:about="">
        <dc:format>image/svg+xml</dc:format>
        <dc:type
           rdf:resource="http://purl.org/dc/dcmitype/StillImage" />
        <dc:title></dc:title>
      </cc:Work>
    </rdf:RDF>
  </metadata>
  <g
     id="layer1"
     inkscape:label="Layer 1"
     inkscape:groupmode="layer">
    <g
       id="g3035"
       transform="matrix(0.10218806,0,0,0.11396794,12.202161,-95.221376)">
      <path
         style="fill:none;stroke:#668700;stroke-width:4;stroke-linecap:butt;stroke-linejoin:miter;stroke-miterlimit:4;stroke-opacity:1;stroke-dasharray:none"
         d="M 104.30893,948.55832 4.9876283,1047.8796"
         id="path3086"
         inkscape:connector-curvature="0"
         sodipodi:nodetypes="cc" />
      <path
         sodipodi:nodetypes="ccc"
         inkscape:connector-curvature="0"
         id="path3002"
         d="m 123.97429,928.82888 c -9.89952,0 -24.748751,4.94976 -19.79901,19.79899 14.84924,4.94975 19.79898,-9.8995 19.79901,-19.79899 z"
         style="fill:#98bf0c;stroke:#668700;stroke-width:2;stroke-linecap:butt;stroke-linejoin:miter;stroke-miterlimit:4;stroke-opacity:1;stroke-dasharray:none" />
      <path
         style="fill:#98bf0c;stroke:#668700;stroke-width:2;stroke-linecap:butt;stroke-linejoin:miter;stroke-miterlimit:4;stroke-opacity:1;stroke-dasharray:none"
         d="m 97.631214,927.12612 c -8.109189,5.67812 -17.433916,18.24989 -4.862151,27.57462 15.002847,-4.46258 10.540267,-19.46543 4.862151,-27.57462 z"
         id="path3000"
         inkscape:connector-curvature="0"
         sodipodi:nodetypes="ccc" />
      <path
         sodipodi:nodetypes="ccc"
         inkscape:connector-curvature="0"
         id="path3004"
         d="m 77.979168,939.01714 c -4.874071,8.61647 -7.876942,23.9782 7.484793,26.98107 11.619337,-10.48766 1.131663,-22.10699 -7.484793,-26.98107 z"
         style="fill:#98bf0c;stroke:#668700;stroke-width:2;stroke-linecap:butt;stroke-linejoin:miter;stroke-miterlimit:4;stroke-opacity:1;stroke-dasharray:none" />
      <path
         style="fill:#98bf0c;stroke:#668700;stroke-width:2;stroke-linecap:butt;stroke-linejoin:miter;stroke-miterlimit:4;stroke-opacity:1;stroke-dasharray:none"
         d="m 65.181221,951.81509 c -4.874071,8.61646 -7.876956,23.97821 7.484793,26.98107 11.619337,-10.48767 1.131663,-22.10699 -7.484793,-26.98107 z"
         id="path3038"
         inkscape:connector-curvature="0"
         sodipodi:nodetypes="ccc" />
      <path
         sodipodi:nodetypes="ccc"
         inkscape:connector-curvature="0"
         id="path3040"
         d="m 52.383288,964.61302 c -4.874106,8.6165 -7.876949,23.97821 7.484758,26.9811 11.619372,-10.48769 1.131698,-22.10702 -7.484758,-26.9811 z"
         style="fill:#98bf0c;stroke:#668700;stroke-width:2;stroke-linecap:butt;stroke-linejoin:miter;stroke-miterlimit:4;stroke-opacity:1;stroke-dasharray:none" />
      <path
         style="fill:#98bf0c;stroke:#668700;stroke-width:2;stroke-linecap:butt;stroke-linejoin:miter;stroke-miterlimit:4;stroke-opacity:1;stroke-dasharray:none"
         d="m 39.585362,977.41094 c -4.874106,8.61651 -7.876948,23.97826 7.484758,26.98116 11.61933,-10.48771 1.131656,-22.10703 -7.484758,-26.98116 z"
         id="path3042"
         inkscape:connector-curvature="0"
         sodipodi:nodetypes="ccc" />
      <path
         sodipodi:nodetypes="ccc"
         inkscape:connector-curvature="0"
         id="path3053"
         d="m 125.60617,955.10108 c -5.67812,8.10918 -18.24989,17.43391 -27.574621,4.86214 4.462581,-15.00285 19.465431,-10.54026 27.574621,-4.86214 z"
         style="fill:#98bf0c;stroke:#668700;stroke-width:2;stroke-linecap:butt;stroke-linejoin:miter;stroke-miterlimit:4;stroke-opacity:1;stroke-dasharray:none" />
      <path
         style="fill:#98bf0c;stroke:#668700;stroke-width:2;stroke-linecap:butt;stroke-linejoin:miter;stroke-miterlimit:4;stroke-opacity:1;stroke-dasharray:none"
         d="m 113.71515,974.75312 c -8.61647,4.87407 -23.978208,7.87694 -26.981074,-7.48479 10.487663,-11.61934 22.106994,-1.13167 26.981074,7.48479 z"
         id="path3055"
         inkscape:connector-curvature="0"
         sodipodi:nodetypes="ccc" />
      <path
         sodipodi:nodetypes="ccc"
         inkscape:connector-curvature="0"
         id="path3057"
         d="m 100.9172,987.55107 c -8.616466,4.87407 -23.978219,7.87695 -26.981071,-7.4848 10.487664,-11.61934 22.106991,-1.13166 26.981071,7.4848 z"
         style="fill:#98bf0c;stroke:#668700;stroke-width:2;stroke-linecap:butt;stroke-linejoin:miter;stroke-miterlimit:4;stroke-opacity:1;stroke-dasharray:none" />
      <path
         style="fill:#98bf0c;stroke:#668700;stroke-width:2;stroke-linecap:butt;stroke-linejoin:miter;stroke-miterlimit:4;stroke-opacity:1;stroke-dasharray:none"
         d="m 88.119267,1000.349 c -8.616501,4.8741 -23.978212,7.8769 -26.981106,-7.48476 10.487699,-11.61937 22.107027,-1.1317 26.981106,7.48476 z"
         id="path3059"
         inkscape:connector-curvature="0"
         sodipodi:nodetypes="ccc" />
      <path
         sodipodi:nodetypes="ccc"
         inkscape:connector-curvature="0"
         id="path3061"
         d="m 75.321341,1013.1469 c -8.616501,4.8741 -23.978211,7.877 -26.981106,-7.4847 10.487657,-11.61936 22.106985,-1.1317 26.981106,7.4847 z"
         style="fill:#98bf0c;stroke:#668700;stroke-width:2;stroke-linecap:butt;stroke-linejoin:miter;stroke-miterlimit:4;stroke-opacity:1;stroke-dasharray:none" />
    </g>
    <rect
       style="fill:none;stroke:#98bf0c;stroke-width:4;stroke-linecap:round;stroke-linejoin:round;stroke-miterlimit:4;stroke-dasharray:none"
       id="rect3049"
       width="19.176405"
       height="18.695879"
       x="9.7754345"
       y="7.5611491"
       ry="2.5289111" />
    <g
       id="g2986"
       transform="matrix(0.13136798,0,0,0.11781548,32.416654,-72.310107)">
      <path
         sodipodi:nodetypes="cccsscssssssscsscccszsccsssssccssssssssc"
         inkscape:connector-curvature="0"
         id="path3006"
         d="m 25.09417,924.78404 c 0.09802,10.17583 1.769406,19.1487 15.40625,24.75 -1.46647,0.21705 -3.660379,0.75933 -7.4375,4.9375 0,0 -27.6477638,-9.39654 -31.1874997,0.875 -2.14208827,6.21587 7.3556762,11.22087 13.7499997,12.75 4.031675,0.96413 12.125,-2.78125 12.125,-2.78125 -3.872702,10.06414 -2.183664,28.32395 2.90625,36.87501 2.848319,4.7852 9.394931,10.4407 10.71875,18.5625 1.042751,6.3974 -5.787127,17.0395 -0.25,23.0937 5.453438,5.9627 14.786775,8.0955 22.875,8.0938 8.078405,0 17.390312,-2.1311 22.84375,-8.0938 5.537127,-6.0542 -1.292751,-16.6963 -0.25,-23.0937 1.323819,-8.1217 7.901681,-13.7774 10.75,-18.5625 5.08992,-8.55108 6.7477,-26.81087 2.875,-36.87501 0,0 8.09333,3.74538 12.125,2.78125 6.39433,-1.52913 15.92334,-6.53413 13.78125,-12.75 -3.53974,-10.27155 -31.1875,-0.875 -31.1875,-0.875 -3.777121,-4.17817 -6.00228,-4.72045 -7.46875,-4.9375 13.63685,-5.6013 15.30825,-14.57417 15.40625,-24.75 0,0 -2.81293,15.53869 -27.125,14.03125 -2.592042,-0.16072 -2.877991,-9.49365 -11.75,-9.49365 -8.872009,-10e-6 -9.157958,9.33293 -11.75,9.49365 -24.31207,1.50745 -27.15625,-14.03125 -27.15625,-14.03125 z m 38.90625,34.46875 c 0,0 15.821789,0.26878 20.5625,5.5625 4.773444,5.33027 6.127088,14.65378 3.28125,21.21875 -1.662263,3.83462 -9.46378,5.37285 -11.59375,8.96875 -4.828004,8.15091 -3.176184,16.86941 -1.15625,26.12501 1.23097,5.6405 11.360338,13.6418 7.46875,20.4687 -0.990912,1.7383 -0.274572,-5.1151 -4.8125,-1.5312 -2.937411,2.3198 2.863687,3.5817 0.75,4.8125 -5.799793,3.3771 -14.604458,2.2815 -14.5,2.2812 0.104589,-2e-4 -8.731457,1.0959 -14.53125,-2.2812 -2.113687,-1.2308 3.687411,-2.4927 0.75,-4.8125 -4.537928,-3.5839 -3.790338,3.2696 -4.78125,1.5312 -3.891588,-6.8268 6.20653,-14.8283 7.4375,-20.4687 2.019934,-9.2556 3.703004,-17.9741 -1.125,-26.12501 -2.12997,-3.59592 -9.962737,-5.13413 -11.625,-8.96875 -2.845838,-6.56496 -1.492194,-15.88848 3.28125,-21.21875 4.740711,-5.29372 20.59375,-5.5625 20.59375,-5.5625 z"
         style="fill:#0099ba;stroke:none" />
      <path
         id="path3019"
         d="m 25.09375,924.76843 c 0.09802,10.17583 1.769406,19.1487 15.40625,24.75 14.619524,-0.60768 13.428497,-5.88666 13.75,-10.71875 -24.31207,1.50745 -29.15625,-14.03125 -29.15625,-14.03125 z"
         style="fill:#333333;stroke:none"
         inkscape:connector-curvature="0" />
      <path
         inkscape:connector-curvature="0"
         style="fill:#333333;stroke:none"
         d="m 102.875,924.76843 c -0.098,10.17583 -1.76941,19.1487 -15.40625,24.75 -14.619524,-0.60768 -13.428497,-5.88666 -13.75,-10.71875 24.31207,1.50745 29.15625,-14.03125 29.15625,-14.03125 z"
         id="path3021" />
    </g>
    <rect
       style="fill:none;stroke:#98bf0c;stroke-width:4;stroke-linecap:round;stroke-linejoin:round;stroke-miterlimit:4;stroke-dasharray:none"
       id="rect3049-1"
       width="20.744926"
       height="18.913757"
       x="30.536629"
       y="34.906761"
       ry="2.5583825" />
    <path
       style="opacity:0.98999999;fill:none;stroke:#0099ba;stroke-width:3.14585114;stroke-linecap:butt;stroke-linejoin:miter;stroke-miterlimit:4;stroke-opacity:1;stroke-dasharray:none"
       d="m 14.636364,28.209364 0,17.399452"
       id="path4718"
       inkscape:connector-type="polyline"
       inkscape:connector-curvature="0" />
    <path
       style="fill:none;stroke:#0099ba;stroke-width:3;stroke-linecap:butt;stroke-linejoin:miter;stroke-miterlimit:4;stroke-opacity:1;stroke-dasharray:none"
       d="m 28.642009,46.636363 -15.465834,0"
       id="path4720"
       inkscape:connector-type="polyline"
       inkscape:connector-curvature="0" />
  </g>
</svg>
