<?xml version="1.0" encoding="UTF-8" standalone="no"?>
<!-- Created with Inkscape (http://www.inkscape.org/) -->

<svg
   xmlns:dc="http://purl.org/dc/elements/1.1/"
   xmlns:cc="http://creativecommons.org/ns#"
   xmlns:rdf="http://www.w3.org/1999/02/22-rdf-syntax-ns#"
   xmlns:svg="http://www.w3.org/2000/svg"
   xmlns="http://www.w3.org/2000/svg"
   xmlns:sodipodi="http://sodipodi.sourceforge.net/DTD/sodipodi-0.dtd"
   xmlns:inkscape="http://www.inkscape.org/namespaces/inkscape"
   width="128"
   height="128"
   id="svg2"
   version="1.1"
   inkscape:version="0.48.5 r10040"
   sodipodi:docname="workshop.svg">
  <defs
     id="defs4" />
  <sodipodi:namedview
     id="base"
     pagecolor="#ffffff"
     bordercolor="#666666"
     borderopacity="1.0"
     inkscape:pageopacity="0.0"
     inkscape:pageshadow="2"
     inkscape:zoom="1.979899"
     inkscape:cx="49.649432"
     inkscape:cy="142.79105"
     inkscape:document-units="px"
     inkscape:current-layer="layer1"
     showgrid="false"
     inkscape:window-width="2560"
     inkscape:window-height="1378"
     inkscape:window-x="-8"
     inkscape:window-y="-8"
     inkscape:window-maximized="1">
    <inkscape:grid
       type="xygrid"
       id="grid2998"
       empspacing="5"
       visible="true"
       enabled="true"
       snapvisiblegridlinesonly="true" />
  </sodipodi:namedview>
  <metadata
     id="metadata7">
    <rdf:RDF>
      <cc:Work
         rdf:about="">
        <dc:format>image/svg+xml</dc:format>
        <dc:type
           rdf:resource="http://purl.org/dc/dcmitype/StillImage" />
        <dc:title />
      </cc:Work>
    </rdf:RDF>
  </metadata>
  <g
     inkscape:label="Calque 1"
     inkscape:groupmode="layer"
     id="layer1"
     transform="translate(0,-924.36218)">
    <g
       id="g3076"
       transform="translate(-0.52593218,1.0522512)">
      <g
         transform="translate(0.01727315,0)"
         id="g3017">
        <path
           id="path3021"
           d="M 108.91788,933.56833 C 108.85298,940.30894 94.033229,953.6518 85,957.36218 c -2.456696,-5.22121 -3.277136,-9.84575 -8.863578,-12.77792 16.104648,0.99856 32.781458,-11.01593 32.781458,-11.01593 z"
           style="fill:#333333;stroke:none"
           inkscape:connector-curvature="0"
           sodipodi:nodetypes="cccc" />
        <path
           sodipodi:nodetypes="cccc"
           inkscape:connector-curvature="0"
           style="fill:#333333;stroke:none"
           d="m 17.547574,933.56833 c 0.0649,6.74061 14.884651,20.08347 23.917878,23.79385 2.4567,-5.22121 3.27714,-9.84575 8.86358,-12.77792 -16.104648,0.99856 -32.781458,-11.01593 -32.781458,-11.01593 z"
           id="path3015" />
      </g>
      <path
         sodipodi:nodetypes="csscscscsscccssssscccsssss"
         inkscape:connector-curvature="0"
         id="path3006"
         transform="translate(0,924.36218)"
         d="m 37.25,35.125 c 0,0 -23.40523,-1.89776 -25.75,4.90625 -1.418949,4.11747 5.358063,4.86209 9.59375,5.875 C 23.764387,46.5449 37.0625,43.125 37.0625,43.125 44.215939,55.413783 40.533438,80.59196 46.125,89 c 2.964036,4.457025 11.767249,5.5011 17.125,5.5 5.357751,0.0011 14.160964,-1.043 17.125,-5.5 5.591562,-8.408 1.909061,-33.58622 9.0625,-45.875 0,0 13.29812,3.4199 15.96875,2.78125 4.23569,-1.01291 11.0127,-1.75753 9.59375,-5.875 C 112.65523,33.22724 89.25,35.125 89.25,35.125 85.237173,29.43361 82.293099,14.436066 63.152388,14.872129 43.123511,14.952924 41.137409,29.611455 37.25,35.125 z m 26,-15.90625 c 6.23318,0 10.801883,0.39182 17.25,7.21875 6.185304,6.54867 3.292063,17.16198 -4.09375,19.28125 -2.661109,0.76358 -6.096059,6.34072 -6.8125,11.4375 -0.873525,6.21427 -1.742118,11.32159 1.40625,16.75 2.280218,3.93157 7.108186,7.78555 5,10.96875 -2.319521,3.1249 -8.52193,4.1308 -12.75,4.375 -4.22807,-0.244239 -10.430479,-1.25011 -12.75,-4.375 -2.108186,-3.183234 2.719782,-7.037202 5,-10.96875 3.148368,-5.428409 2.279775,-10.53573 1.40625,-16.75 C 56.189809,52.059475 52.754859,46.482324 50.09375,45.71875 42.707937,43.599477 39.814696,32.986175 46,26.4375 52.448117,19.610573 57.01682,19.21875 63.25,19.21875 z"
         style="fill:#0099ba;stroke:none" />
      <path
         sodipodi:nodetypes="sssss"
         inkscape:connector-curvature="0"
         id="path3011"
         d="m 63,997.36218 c -4.366062,0 -8,4.99372 -8,10.00002 0,2 4.542639,2.7532 8,2.7532 3.457361,0 8,-0.7532 8,-2.7532 0,-5 -3.25,-10.00002 -8,-10.00002 z"
         style="fill:#333333;stroke:none" />
      <path
         sodipodi:nodetypes="cc"
         inkscape:connector-curvature="0"
         id="path3086"
         d="M 107.79268,985.74916 82.315541,1040.1956"
         style="fill:none;stroke:#668700;stroke-width:1.71185505;stroke-linecap:butt;stroke-linejoin:miter;stroke-miterlimit:4;stroke-opacity:1;stroke-dasharray:none" />
      <path
         style="fill:#98bf0c;stroke:#668700;stroke-width:0.85592753;stroke-linecap:butt;stroke-linejoin:miter;stroke-miterlimit:4;stroke-opacity:1;stroke-dasharray:none"
         d="m 112.82775,974.94311 c -3.98306,1.44371 -9.23578,5.6008 -5.0787,10.85352 6.69643,-0.17404 6.52239,-6.87047 5.0787,-10.85352 z"
         id="path3002"
         inkscape:connector-curvature="0"
         sodipodi:nodetypes="ccc" />
      <path
         sodipodi:nodetypes="ccc"
         inkscape:connector-curvature="0"
         id="path3000"
         d="m 101.98031,978.09979 c -2.434643,3.4672 -4.353013,9.88533 2.06511,11.8037 5.38557,-3.98348 1.40209,-9.36905 -2.06511,-11.8037 z"
         style="fill:#98bf0c;stroke:#668700;stroke-width:0.85592753;stroke-linecap:butt;stroke-linejoin:miter;stroke-miterlimit:4;stroke-opacity:1;stroke-dasharray:none" />
      <path
         style="fill:#98bf0c;stroke:#668700;stroke-width:0.85592753;stroke-linecap:butt;stroke-linejoin:miter;stroke-miterlimit:4;stroke-opacity:1;stroke-dasharray:none"
         d="m 95.807479,985.75011 c -0.70448,4.17765 0.32762,10.79635 6.946331,9.76425 3.14554,-5.91422 -2.76869,-9.05976 -6.946331,-9.76425 z"
         id="path3004"
         inkscape:connector-curvature="0"
         sodipodi:nodetypes="ccc" />
      <path
         sodipodi:nodetypes="ccc"
         inkscape:connector-curvature="0"
         id="path3038"
         d="m 92.524648,992.76577 c -0.704482,4.17764 0.327616,10.79633 6.946326,9.76423 3.145546,-5.91421 -2.768685,-9.05975 -6.946326,-9.76423 z"
         style="fill:#98bf0c;stroke:#668700;stroke-width:0.85592753;stroke-linecap:butt;stroke-linejoin:miter;stroke-miterlimit:4;stroke-opacity:1;stroke-dasharray:none" />
      <path
         style="fill:#98bf0c;stroke:#668700;stroke-width:0.85592753;stroke-linecap:butt;stroke-linejoin:miter;stroke-miterlimit:4;stroke-opacity:1;stroke-dasharray:none"
         d="m 89.24182,999.78141 c -0.70449,4.17769 0.327618,10.79639 6.946316,9.76429 3.145553,-5.9143 -2.768675,-9.0598 -6.946316,-9.76429 z"
         id="path3040"
         inkscape:connector-curvature="0"
         sodipodi:nodetypes="ccc" />
      <path
         style="fill:#98bf0c;stroke:#668700;stroke-width:0.85592753;stroke-linecap:butt;stroke-linejoin:miter;stroke-miterlimit:4;stroke-opacity:1;stroke-dasharray:none"
         d="m 117.31578,985.27571 c -1.10197,4.0908 -4.80032,9.67602 -10.38554,5.97767 -0.39245,-6.68719 6.29474,-7.07964 10.38554,-5.97767 z"
         id="path3053"
         inkscape:connector-curvature="0"
         sodipodi:nodetypes="ccc" />
      <path
         sodipodi:nodetypes="ccc"
         inkscape:connector-curvature="0"
         id="path3055"
         d="m 115.39743,994.91683 c -2.75601,3.21768 -8.49886,6.66617 -11.94737,0.92334 2.52518,-6.20452 8.72969,-3.67934 11.94737,-0.92334 z"
         style="fill:#98bf0c;stroke:#668700;stroke-width:0.85592753;stroke-linecap:butt;stroke-linejoin:miter;stroke-miterlimit:4;stroke-opacity:1;stroke-dasharray:none" />
      <path
         style="fill:#98bf0c;stroke:#668700;stroke-width:0.85592753;stroke-linecap:butt;stroke-linejoin:miter;stroke-miterlimit:4;stroke-opacity:1;stroke-dasharray:none"
         d="m 112.11459,1001.9325 c -2.756,3.2177 -8.49886,6.6662 -11.94736,0.9233 2.52518,-6.2045 8.72969,-3.67932 11.94736,-0.9233 z"
         id="path3057"
         inkscape:connector-curvature="0"
         sodipodi:nodetypes="ccc" />
      <path
         sodipodi:nodetypes="ccc"
         inkscape:connector-curvature="0"
         id="path3059"
         d="m 108.83177,1008.9481 c -2.75602,3.2177 -8.49887,6.6662 -11.947375,0.9234 2.525186,-6.2046 8.729695,-3.6794 11.947375,-0.9234 z"
         style="fill:#98bf0c;stroke:#668700;stroke-width:0.85592753;stroke-linecap:butt;stroke-linejoin:miter;stroke-miterlimit:4;stroke-opacity:1;stroke-dasharray:none" />
      <path
         style="fill:#668700;stroke:none"
         d="m 108.92106,1016.5373 c -3.64297,-0.9636 -20.259257,18.4438 -22.929522,16.3699 0.899824,-8.8052 19.045292,-20.1923 22.929522,-16.3699 z"
         id="path3074"
         inkscape:connector-curvature="0"
         sodipodi:nodetypes="ccc" />
    </g>
  </g>
</svg>
